<?xml version="1.0" encoding="UTF-8" standalone="no"?>
<!DOCTYPE svg PUBLIC "-//W3C//DTD SVG 1.1//EN"
 "http://www.w3.org/Graphics/SVG/1.1/DTD/svg11.dtd">
<!-- Generated by graphviz version 12.1.2 (20240928.0832)
 -->
<!-- Title: KPI_Parser_Loop Pages: 1 -->
<svg width="697pt" height="1052pt"
 viewBox="0.00 0.00 697.06 1052.00" xmlns="http://www.w3.org/2000/svg" xmlns:xlink="http://www.w3.org/1999/xlink">
<g id="graph0" class="graph" transform="scale(1 1) rotate(0) translate(4 1048)">
<title>KPI_Parser_Loop</title>
<polygon fill="white" stroke="none" points="-4,4 -4,-1048 693.06,-1048 693.06,4 -4,4"/>
<g id="clust1" class="cluster">
<title>cluster_initialization</title>
<polygon fill="lightblue" stroke="lightblue" points="8,-785.75 8,-1036 154,-1036 154,-785.75 8,-785.75"/>
<text text-anchor="middle" x="81" y="-1018.7" font-family="Times New Roman,serif" font-size="14.00">Initialization Phase</text>
</g>
<g id="clust2" class="cluster">
<title>cluster_stream_loop</title>
<polygon fill="lightgreen" stroke="lightgreen" points="162,-351.25 162,-864 499,-864 499,-351.25 162,-351.25"/>
<text text-anchor="middle" x="330.5" y="-846.7" font-family="Times New Roman,serif" font-size="14.00">Stream Processing Loop</text>
</g>
<g id="clust3" class="cluster">
<title>cluster_data_model</title>
<polygon fill="lightyellow" stroke="lightyellow" points="330,-8 330,-332.25 580,-332.25 580,-8 330,-8"/>
<text text-anchor="middle" x="455" y="-314.95" font-family="Times New Roman,serif" font-size="14.00">Data Model Operations</text>
</g>
<g id="clust4" class="cluster">
<title>cluster_completion</title>
<polygon fill="lightcoral" stroke="lightcoral" points="507,-519 507,-752 669,-752 669,-519 507,-519"/>
<text text-anchor="middle" x="588" y="-734.7" font-family="Times New Roman,serif" font-size="14.00">Completion Phase</text>
</g>
<!-- start -->
<g id="node1" class="node">
<title>start</title>
<polygon fill="lightcyan" stroke="black" points="127.25,-1003.5 34.75,-1003.5 34.75,-967.5 127.25,-967.5 127.25,-1003.5"/>
<text text-anchor="middle" x="81" y="-980.08" font-family="Arial" font-size="14.00">Start Parse()</text>
</g>
<!-- scan_index -->
<g id="node2" class="node">
<title>scan_index</title>
<polygon fill="lightcyan" stroke="black" points="145.62,-930.5 16.38,-930.5 16.38,-891 145.62,-891 145.62,-930.5"/>
<text text-anchor="middle" x="81" y="-913.2" font-family="Arial" font-size="14.00">Extract Scan Index</text>
<text text-anchor="middle" x="81" y="-897.45" font-family="Arial" font-size="14.00">from First Stream</text>
</g>
<!-- start&#45;&gt;scan_index -->
<g id="edge1" class="edge">
<title>start&#45;&gt;scan_index</title>
<path fill="none" stroke="black" d="M81,-967.26C81,-959.75 81,-950.72 81,-942.14"/>
<polygon fill="black" stroke="black" points="84.5,-942.43 81,-932.43 77.5,-942.43 84.5,-942.43"/>
</g>
<!-- init_models -->
<g id="node3" class="node">
<title>init_models</title>
<polygon fill="lightcyan" stroke="black" points="143.38,-833.25 30.62,-833.25 30.62,-793.75 143.38,-793.75 143.38,-833.25"/>
<text text-anchor="middle" x="87" y="-815.95" font-family="Arial" font-size="14.00">Initialize Models</text>
<text text-anchor="middle" x="87" y="-800.2" font-family="Arial" font-size="14.00">with Scan Index</text>
</g>
<!-- scan_index&#45;&gt;init_models -->
<g id="edge2" class="edge">
<title>scan_index&#45;&gt;init_models</title>
<path fill="none" stroke="black" d="M82.19,-890.93C83.01,-877.84 84.13,-860.1 85.08,-845"/>
<polygon fill="black" stroke="black" points="88.57,-845.32 85.7,-835.12 81.58,-844.88 88.57,-845.32"/>
</g>
<!-- stream_start -->
<g id="node4" class="node">
<title>stream_start</title>
<polygon fill="lightgreen" stroke="black" points="353.88,-719.5 214.12,-719.5 214.12,-680 353.88,-680 353.88,-719.5"/>
<text text-anchor="middle" x="284" y="-702.2" font-family="Arial" font-size="14.00">For Each Stream</text>
<text text-anchor="middle" x="284" y="-686.45" font-family="Arial" font-size="14.00">[stream_idx, stream]</text>
</g>
<!-- init_models&#45;&gt;stream_start -->
<g id="edge3" class="edge">
<title>init_models&#45;&gt;stream_start</title>
<path fill="none" stroke="black" d="M120.87,-793.29C153.95,-774.52 204.45,-745.88 240.49,-725.43"/>
<polygon fill="black" stroke="black" points="241.96,-728.62 248.93,-720.64 238.51,-722.53 241.96,-728.62"/>
</g>
<!-- init_parent -->
<g id="node5" class="node">
<title>init_parent</title>
<polygon fill="palegreen" stroke="black" points="362.88,-643 205.12,-643 205.12,-603.5 362.88,-603.5 362.88,-643"/>
<text text-anchor="middle" x="284" y="-625.7" font-family="Arial" font-size="14.00">init_parent()</text>
<text text-anchor="middle" x="284" y="-609.95" font-family="Arial" font-size="14.00">[{stream_idx}_{stream}]</text>
</g>
<!-- stream_start&#45;&gt;init_parent -->
<g id="edge4" class="edge">
<title>stream_start&#45;&gt;init_parent</title>
<path fill="none" stroke="black" d="M284,-679.56C284,-672 284,-663.13 284,-654.74"/>
<polygon fill="black" stroke="black" points="287.5,-654.88 284,-644.88 280.5,-654.88 287.5,-654.88"/>
</g>
<!-- check_files -->
<g id="node6" class="node">
<title>check_files</title>
<polygon fill="palegreen" stroke="black" points="343,-566.5 225,-566.5 225,-527 343,-527 343,-566.5"/>
<text text-anchor="middle" x="284" y="-549.2" font-family="Arial" font-size="14.00">Check HDF Files</text>
<text text-anchor="middle" x="284" y="-533.45" font-family="Arial" font-size="14.00">Exist for Stream</text>
</g>
<!-- init_parent&#45;&gt;check_files -->
<g id="edge5" class="edge">
<title>init_parent&#45;&gt;check_files</title>
<path fill="none" stroke="black" d="M284,-603.06C284,-595.5 284,-586.63 284,-578.24"/>
<polygon fill="black" stroke="black" points="287.5,-578.38 284,-568.38 280.5,-578.38 287.5,-578.38"/>
</g>
<!-- parse_input -->
<g id="node7" class="node">
<title>parse_input</title>
<polygon fill="lightgreen" stroke="black" points="321.5,-475.25 170.5,-475.25 170.5,-435.75 321.5,-435.75 321.5,-475.25"/>
<text text-anchor="middle" x="246" y="-457.95" font-family="Arial" font-size="14.00">Parse Input Stream</text>
<text text-anchor="middle" x="246" y="-442.2" font-family="Arial" font-size="14.00">KPIHDFParser.parse()</text>
</g>
<!-- check_files&#45;&gt;parse_input -->
<g id="edge6" class="edge">
<title>check_files&#45;&gt;parse_input</title>
<path fill="none" stroke="black" d="M275.94,-526.82C270.89,-514.95 264.27,-499.4 258.54,-485.94"/>
<polygon fill="black" stroke="black" points="261.91,-484.93 254.77,-477.1 255.47,-487.67 261.91,-484.93"/>
<text text-anchor="middle" x="301.4" y="-495.7" font-family="Arial" font-size="14.00">Input exists</text>
</g>
<!-- parse_output -->
<g id="node9" class="node">
<title>parse_output</title>
<polygon fill="lightgreen" stroke="black" points="490.5,-475.25 339.5,-475.25 339.5,-435.75 490.5,-435.75 490.5,-475.25"/>
<text text-anchor="middle" x="415" y="-457.95" font-family="Arial" font-size="14.00">Parse Output Stream</text>
<text text-anchor="middle" x="415" y="-442.2" font-family="Arial" font-size="14.00">KPIHDFParser.parse()</text>
</g>
<!-- check_files&#45;&gt;parse_output -->
<g id="edge7" class="edge">
<title>check_files&#45;&gt;parse_output</title>
<path fill="none" stroke="black" d="M313.46,-526.65C322.05,-521.02 331.43,-514.81 340,-509 352.79,-500.33 366.68,-490.67 378.99,-482.03"/>
<polygon fill="black" stroke="black" points="380.66,-485.14 386.82,-476.52 376.63,-479.42 380.66,-485.14"/>
<text text-anchor="middle" x="402.57" y="-495.7" font-family="Arial" font-size="14.00">Output exists</text>
</g>
<!-- store_input -->
<g id="node8" class="node">
<title>store_input</title>
<polygon fill="lightgreen" stroke="black" points="320.88,-398.75 181.12,-398.75 181.12,-359.25 320.88,-359.25 320.88,-398.75"/>
<text text-anchor="middle" x="251" y="-381.45" font-family="Arial" font-size="14.00">Store in</text>
<text text-anchor="middle" x="251" y="-365.7" font-family="Arial" font-size="14.00">stream_input_model</text>
</g>
<!-- parse_input&#45;&gt;store_input -->
<g id="edge8" class="edge">
<title>parse_input&#45;&gt;store_input</title>
<path fill="none" stroke="black" d="M247.29,-435.31C247.8,-427.75 248.39,-418.88 248.95,-410.49"/>
<polygon fill="black" stroke="black" points="252.44,-410.84 249.62,-400.63 245.45,-410.37 252.44,-410.84"/>
</g>
<!-- set_value -->
<g id="node12" class="node">
<title>set_value</title>
<polygon fill="lightyellow" stroke="black" points="491.62,-299.75 338.38,-299.75 338.38,-260.25 491.62,-260.25 491.62,-299.75"/>
<text text-anchor="middle" x="415" y="-282.45" font-family="Arial" font-size="14.00">set_value()</text>
<text text-anchor="middle" x="415" y="-266.7" font-family="Arial" font-size="14.00">Dataset, Signal, Group</text>
</g>
<!-- store_input&#45;&gt;set_value -->
<g id="edge10" class="edge">
<title>store_input&#45;&gt;set_value</title>
<path fill="none" stroke="black" d="M283.4,-358.84C309.01,-343.69 344.95,-322.43 372.8,-305.96"/>
<polygon fill="black" stroke="black" points="374.54,-309 381.36,-300.89 370.97,-302.97 374.54,-309"/>
</g>
<!-- store_output -->
<g id="node10" class="node">
<title>store_output</title>
<polygon fill="lightgreen" stroke="black" points="489,-398.75 341,-398.75 341,-359.25 489,-359.25 489,-398.75"/>
<text text-anchor="middle" x="415" y="-381.45" font-family="Arial" font-size="14.00">Store in</text>
<text text-anchor="middle" x="415" y="-365.7" font-family="Arial" font-size="14.00">stream_output_model</text>
</g>
<!-- parse_output&#45;&gt;store_output -->
<g id="edge9" class="edge">
<title>parse_output&#45;&gt;store_output</title>
<path fill="none" stroke="black" d="M415,-435.31C415,-427.75 415,-418.88 415,-410.49"/>
<polygon fill="black" stroke="black" points="418.5,-410.63 415,-400.63 411.5,-410.63 418.5,-410.63"/>
</g>
<!-- store_output&#45;&gt;set_value -->
<g id="edge11" class="edge">
<title>store_output&#45;&gt;set_value</title>
<path fill="none" stroke="black" d="M415,-358.84C415,-345.28 415,-326.84 415,-311.31"/>
<polygon fill="black" stroke="black" points="418.5,-311.64 415,-301.64 411.5,-311.64 418.5,-311.64"/>
</g>
<!-- next_stream -->
<g id="node11" class="node">
<title>next_stream</title>
<polygon fill="palegreen" stroke="black" points="490.88,-831.5 399.12,-831.5 399.12,-795.5 490.88,-795.5 490.88,-831.5"/>
<text text-anchor="middle" x="445" y="-808.08" font-family="Arial" font-size="14.00">Next Stream</text>
</g>
<!-- next_stream&#45;&gt;stream_start -->
<g id="edge18" class="edge">
<title>next_stream&#45;&gt;stream_start</title>
<path fill="none" stroke="black" stroke-dasharray="5,2" d="M419.84,-795.04C393.35,-776.65 351.35,-747.5 321.06,-726.48"/>
<polygon fill="black" stroke="black" points="323.13,-723.65 312.92,-720.82 319.14,-729.4 323.13,-723.65"/>
<text text-anchor="middle" x="430.33" y="-762.45" font-family="Arial" font-size="14.00">More streams</text>
</g>
<!-- create_kpi -->
<g id="node17" class="node">
<title>create_kpi</title>
<polygon fill="lightcoral" stroke="black" points="660.88,-719.5 515.12,-719.5 515.12,-680 660.88,-680 660.88,-719.5"/>
<text text-anchor="middle" x="588" y="-702.2" font-family="Arial" font-size="14.00">Create KpiDataModel</text>
<text text-anchor="middle" x="588" y="-686.45" font-family="Arial" font-size="14.00">with Both Models</text>
</g>
<!-- next_stream&#45;&gt;create_kpi -->
<g id="edge19" class="edge">
<title>next_stream&#45;&gt;create_kpi</title>
<path fill="none" stroke="black" d="M467.34,-795.04C490.67,-776.81 527.53,-748 554.38,-727.02"/>
<polygon fill="black" stroke="black" points="556.5,-729.81 562.22,-720.89 552.19,-724.29 556.5,-729.81"/>
<text text-anchor="middle" x="558.56" y="-762.45" font-family="Arial" font-size="14.00">All streams done</text>
</g>
<!-- check_parent -->
<g id="node13" class="node">
<title>check_parent</title>
<polygon fill="wheat" stroke="black" points="484.5,-223.25 345.5,-223.25 345.5,-183.75 484.5,-183.75 484.5,-223.25"/>
<text text-anchor="middle" x="415" y="-205.95" font-family="Arial" font-size="14.00">Check if New Parent</text>
<text text-anchor="middle" x="415" y="-190.2" font-family="Arial" font-size="14.00">Group</text>
</g>
<!-- set_value&#45;&gt;check_parent -->
<g id="edge12" class="edge">
<title>set_value&#45;&gt;check_parent</title>
<path fill="none" stroke="black" d="M415,-259.81C415,-252.25 415,-243.38 415,-234.99"/>
<polygon fill="black" stroke="black" points="418.5,-235.13 415,-225.13 411.5,-235.13 418.5,-235.13"/>
</g>
<!-- process_dataset -->
<g id="node14" class="node">
<title>process_dataset</title>
<polygon fill="wheat" stroke="black" points="453.5,-132 338.5,-132 338.5,-92.5 453.5,-92.5 453.5,-132"/>
<text text-anchor="middle" x="396" y="-114.7" font-family="Arial" font-size="14.00">Process Dataset</text>
<text text-anchor="middle" x="396" y="-98.95" font-family="Arial" font-size="14.00">Round &amp; Store</text>
</g>
<!-- check_parent&#45;&gt;process_dataset -->
<g id="edge13" class="edge">
<title>check_parent&#45;&gt;process_dataset</title>
<path fill="none" stroke="black" d="M410.97,-183.57C408.49,-171.94 405.26,-156.77 402.44,-143.49"/>
<polygon fill="black" stroke="black" points="405.91,-142.99 400.4,-133.94 399.06,-144.45 405.91,-142.99"/>
<text text-anchor="middle" x="441.14" y="-152.45" font-family="Arial" font-size="14.00">New parent</text>
</g>
<!-- update_mappings -->
<g id="node15" class="node">
<title>update_mappings</title>
<polygon fill="wheat" stroke="black" points="572.38,-132 471.62,-132 471.62,-92.5 572.38,-92.5 572.38,-132"/>
<text text-anchor="middle" x="522" y="-114.7" font-family="Arial" font-size="14.00">Update Signal</text>
<text text-anchor="middle" x="522" y="-98.95" font-family="Arial" font-size="14.00">Mappings</text>
</g>
<!-- check_parent&#45;&gt;update_mappings -->
<g id="edge14" class="edge">
<title>check_parent&#45;&gt;update_mappings</title>
<path fill="none" stroke="black" d="M452.74,-183.34C461.43,-178.17 470.35,-172.2 478,-165.75 486.48,-158.6 494.62,-149.69 501.54,-141.25"/>
<polygon fill="black" stroke="black" points="504.15,-143.6 507.6,-133.58 498.66,-139.26 504.15,-143.6"/>
<text text-anchor="middle" x="523.17" y="-152.45" font-family="Arial" font-size="14.00">Child item</text>
</g>
<!-- generate_keys -->
<g id="node16" class="node">
<title>generate_keys</title>
<polygon fill="wheat" stroke="black" points="571.75,-55.5 464.25,-55.5 464.25,-16 571.75,-16 571.75,-55.5"/>
<text text-anchor="middle" x="518" y="-38.2" font-family="Arial" font-size="14.00">Generate Keys</text>
<text text-anchor="middle" x="518" y="-22.45" font-family="Arial" font-size="14.00">{parent}_{child}</text>
</g>
<!-- process_dataset&#45;&gt;generate_keys -->
<g id="edge15" class="edge">
<title>process_dataset&#45;&gt;generate_keys</title>
<path fill="none" stroke="black" d="M427.42,-92.06C442.5,-82.85 460.77,-71.7 476.94,-61.82"/>
<polygon fill="black" stroke="black" points="478.69,-64.86 485.4,-56.66 475.04,-58.88 478.69,-64.86"/>
</g>
<!-- update_mappings&#45;&gt;generate_keys -->
<g id="edge16" class="edge">
<title>update_mappings&#45;&gt;generate_keys</title>
<path fill="none" stroke="black" d="M520.97,-92.06C520.56,-84.5 520.09,-75.63 519.64,-67.24"/>
<polygon fill="black" stroke="black" points="523.14,-67.18 519.11,-57.38 516.15,-67.56 523.14,-67.18"/>
</g>
<!-- generate_keys&#45;&gt;next_stream -->
<g id="edge17" class="edge">
<title>generate_keys&#45;&gt;next_stream</title>
<path fill="none" stroke="black" d="M572.11,-38.46C622.2,-43.29 689,-59.44 689,-111.25 689,-700.75 689,-700.75 689,-700.75 689,-724.61 689.23,-734.51 673,-752 650.03,-776.74 562.08,-794.71 502.37,-804.37"/>
<polygon fill="black" stroke="black" points="502.03,-800.88 492.7,-805.89 503.12,-807.79 502.03,-800.88"/>
</g>
<!-- close_files -->
<g id="node18" class="node">
<title>close_files</title>
<polygon fill="salmon" stroke="black" points="648.88,-641.25 527.12,-641.25 527.12,-605.25 648.88,-605.25 648.88,-641.25"/>
<text text-anchor="middle" x="588" y="-617.83" font-family="Arial" font-size="14.00">Close HDF5 Files</text>
</g>
<!-- create_kpi&#45;&gt;close_files -->
<g id="edge20" class="edge">
<title>create_kpi&#45;&gt;close_files</title>
<path fill="none" stroke="black" d="M588,-679.56C588,-671.5 588,-661.95 588,-653.07"/>
<polygon fill="black" stroke="black" points="591.5,-653.1 588,-643.1 584.5,-653.1 591.5,-653.1"/>
</g>
<!-- return_results -->
<g id="node19" class="node">
<title>return_results</title>
<polygon fill="salmon" stroke="black" points="644.38,-566.5 531.62,-566.5 531.62,-527 644.38,-527 644.38,-566.5"/>
<text text-anchor="middle" x="588" y="-549.2" font-family="Arial" font-size="14.00">Return Results</text>
<text text-anchor="middle" x="588" y="-533.45" font-family="Arial" font-size="14.00">with HTML Path</text>
</g>
<!-- close_files&#45;&gt;return_results -->
<g id="edge21" class="edge">
<title>close_files&#45;&gt;return_results</title>
<path fill="none" stroke="black" d="M588,-604.97C588,-597.02 588,-587.35 588,-578.23"/>
<polygon fill="black" stroke="black" points="591.5,-578.28 588,-568.28 584.5,-578.28 591.5,-578.28"/>
</g>
</g>
</svg>
