<?xml version="1.0" encoding="UTF-8" standalone="no"?>
<!DOCTYPE svg PUBLIC "-//W3C//DTD SVG 1.1//EN"
 "http://www.w3.org/Graphics/SVG/1.1/DTD/svg11.dtd">
<!-- Generated by graphviz version 12.1.2 (20240928.0832)
 -->
<!-- Title: KPI_Data_Flow Pages: 1 -->
<svg width="453pt" height="1089pt"
 viewBox="0.00 0.00 453.25 1089.06" xmlns="http://www.w3.org/2000/svg" xmlns:xlink="http://www.w3.org/1999/xlink">
<g id="graph0" class="graph" transform="scale(1 1) rotate(0) translate(4 1085.06)">
<title>KPI_Data_Flow</title>
<polygon fill="white" stroke="none" points="-4,4 -4,-1085.06 449.25,-1085.06 449.25,4 -4,4"/>
<g id="clust1" class="cluster">
<title>cluster_server</title>
<polygon fill="lightblue" stroke="lightblue" points="228,-8 228,-179.25 361,-179.25 361,-8 228,-8"/>
<text text-anchor="middle" x="294.5" y="-161.95" font-family="Times New Roman,serif" font-size="14.00">KPI Server Layer</text>
</g>
<g id="clust2" class="cluster">
<title>cluster_wrapper</title>
<polygon fill="lightgreen" stroke="lightgreen" points="201,-905.31 201,-1073.06 361,-1073.06 361,-905.31 201,-905.31"/>
<text text-anchor="middle" x="281" y="-1055.76" font-family="Times New Roman,serif" font-size="14.00">HDF Wrapper Layer</text>
</g>
<g id="clust3" class="cluster">
<title>cluster_parser</title>
<polygon fill="lightyellow" stroke="lightyellow" points="176,-685.5 176,-871.56 314,-871.56 314,-685.5 176,-685.5"/>
<text text-anchor="middle" x="245" y="-854.26" font-family="Times New Roman,serif" font-size="14.00">Parser Layer</text>
</g>
<g id="clust4" class="cluster">
<title>cluster_storage</title>
<polygon fill="lightpink" stroke="lightpink" points="24,-498.75 24,-651.75 340,-651.75 340,-498.75 24,-498.75"/>
<text text-anchor="middle" x="182" y="-634.45" font-family="Times New Roman,serif" font-size="14.00">Data Storage Layer</text>
</g>
<g id="clust5" class="cluster">
<title>cluster_business</title>
<polygon fill="lightcoral" stroke="lightcoral" points="8,-312 8,-465 348,-465 348,-312 8,-312"/>
<text text-anchor="middle" x="178" y="-447.7" font-family="Times New Roman,serif" font-size="14.00">Business Logic Layer</text>
</g>
<g id="clust6" class="cluster">
<title>cluster_output</title>
<polygon fill="lavender" stroke="lavender" points="163,-213 163,-293 277,-293 277,-213 163,-213"/>
<text text-anchor="middle" x="220" y="-275.7" font-family="Times New Roman,serif" font-size="14.00">Output Layer</text>
</g>
<!-- kpi_server -->
<g id="node1" class="node">
<title>kpi_server</title>
<polygon fill="lightcyan" stroke="black" points="336,-146.75 236,-146.75 236,-107.25 336,-107.25 336,-146.75"/>
<text text-anchor="middle" x="286" y="-129.45" font-family="Arial" font-size="14.00">kpi_server.py</text>
<text text-anchor="middle" x="286" y="-113.7" font-family="Arial" font-size="14.00">(ZMQ Server)</text>
</g>
<!-- parse_for_kpi -->
<g id="node2" class="node">
<title>parse_for_kpi</title>
<polygon fill="lightcyan" stroke="black" points="347.38,-55.5 240.62,-55.5 240.62,-16 347.38,-16 347.38,-55.5"/>
<text text-anchor="middle" x="294" y="-38.2" font-family="Arial" font-size="14.00">parse_for_kpi()</text>
<text text-anchor="middle" x="294" y="-22.45" font-family="Arial" font-size="14.00">Function</text>
</g>
<!-- kpi_server&#45;&gt;parse_for_kpi -->
<g id="edge1" class="edge">
<title>kpi_server&#45;&gt;parse_for_kpi</title>
<path fill="none" stroke="black" d="M264.79,-107.17C256.46,-97.43 249.97,-85.16 255,-73.5 256.39,-70.27 258.22,-67.2 260.33,-64.3"/>
<polygon fill="black" stroke="black" points="262.91,-66.67 266.83,-56.82 257.63,-62.07 262.91,-66.67"/>
<text text-anchor="middle" x="304.5" y="-75.95" font-family="Arial" font-size="14.00">sensor_id, paths</text>
</g>
<!-- config -->
<g id="node4" class="node">
<title>config</title>
<polygon fill="palegreen" stroke="black" points="352.75,-1040.56 209.25,-1040.56 209.25,-1004.56 352.75,-1004.56 352.75,-1040.56"/>
<text text-anchor="middle" x="281" y="-1017.14" font-family="Arial" font-size="14.00">KPIProcessingConfig</text>
</g>
<!-- parse_for_kpi&#45;&gt;config -->
<g id="edge2" class="edge">
<title>parse_for_kpi&#45;&gt;config</title>
<path fill="none" stroke="black" d="M334.9,-55.91C342.08,-60.79 348.89,-66.65 354,-73.5 368.44,-92.86 368,-101.85 368,-126 368,-934.06 368,-934.06 368,-934.06 368,-961.21 346.67,-982.93 325.14,-997.93"/>
<polygon fill="black" stroke="black" points="323.35,-994.92 316.9,-1003.32 327.19,-1000.78 323.35,-994.92"/>
<text text-anchor="middle" x="406.62" y="-519.33" font-family="Arial" font-size="14.00">create config</text>
</g>
<!-- hdf_wrapper -->
<g id="node3" class="node">
<title>hdf_wrapper</title>
<polygon fill="lightgreen" stroke="black" points="338.12,-952.81 211.88,-952.81 211.88,-913.31 338.12,-913.31 338.12,-952.81"/>
<text text-anchor="middle" x="275" y="-935.51" font-family="Arial" font-size="14.00">hdf_wrapper.py</text>
<text text-anchor="middle" x="275" y="-919.76" font-family="Arial" font-size="14.00">(KPIHDFWrapper)</text>
</g>
<!-- hdf_files -->
<g id="node6" class="node">
<title>hdf_files</title>
<path fill="wheat" stroke="black" d="M295,-834.12C295,-836.85 272.59,-839.06 245,-839.06 217.41,-839.06 195,-836.85 195,-834.12 195,-834.12 195,-789.69 195,-789.69 195,-786.96 217.41,-784.75 245,-784.75 272.59,-784.75 295,-786.96 295,-789.69 295,-789.69 295,-834.12 295,-834.12"/>
<path fill="none" stroke="black" d="M295,-834.12C295,-831.4 272.59,-829.19 245,-829.19 217.41,-829.19 195,-831.4 195,-834.12"/>
<text text-anchor="middle" x="245" y="-814.36" font-family="Arial" font-size="14.00">HDF5 Files</text>
<text text-anchor="middle" x="245" y="-798.61" font-family="Arial" font-size="14.00">(Input/Output)</text>
</g>
<!-- hdf_wrapper&#45;&gt;hdf_files -->
<g id="edge4" class="edge">
<title>hdf_wrapper&#45;&gt;hdf_files</title>
<path fill="none" stroke="black" d="M264.47,-913.05C261.76,-907.48 259.09,-901.27 257.25,-895.31 252.86,-881.06 250.02,-864.91 248.19,-850.72"/>
<polygon fill="black" stroke="black" points="251.67,-850.37 247.06,-840.84 244.72,-851.17 251.67,-850.37"/>
<text text-anchor="middle" x="305.62" y="-882.01" font-family="Arial" font-size="14.00">open HDF5 files</text>
</g>
<!-- config&#45;&gt;hdf_wrapper -->
<g id="edge3" class="edge">
<title>config&#45;&gt;hdf_wrapper</title>
<path fill="none" stroke="black" d="M279.81,-1004.28C279.03,-992.87 277.99,-977.63 277.07,-964.26"/>
<polygon fill="black" stroke="black" points="280.59,-964.38 276.41,-954.65 273.6,-964.86 280.59,-964.38"/>
<text text-anchor="middle" x="302.54" y="-973.26" font-family="Arial" font-size="14.00">initialize</text>
</g>
<!-- kpi_hdf_parser -->
<g id="node5" class="node">
<title>kpi_hdf_parser</title>
<polygon fill="lightyellow" stroke="black" points="306.25,-733 183.75,-733 183.75,-693.5 306.25,-693.5 306.25,-733"/>
<text text-anchor="middle" x="245" y="-715.7" font-family="Arial" font-size="14.00">kpi_hdf_parser.py</text>
<text text-anchor="middle" x="245" y="-699.95" font-family="Arial" font-size="14.00">(KPIHDFParser)</text>
</g>
<!-- data_model -->
<g id="node7" class="node">
<title>data_model</title>
<polygon fill="lightpink" stroke="black" points="332.25,-619.25 149.75,-619.25 149.75,-579.75 332.25,-579.75 332.25,-619.25"/>
<text text-anchor="middle" x="241" y="-601.95" font-family="Arial" font-size="14.00">kpi_data_model_storage.py</text>
<text text-anchor="middle" x="241" y="-586.2" font-family="Arial" font-size="14.00">(KPI_DataModelStorage)</text>
</g>
<!-- kpi_hdf_parser&#45;&gt;data_model -->
<g id="edge6" class="edge">
<title>kpi_hdf_parser&#45;&gt;data_model</title>
<path fill="none" stroke="black" d="M244.31,-693.04C243.7,-675.91 242.79,-650.54 242.08,-630.69"/>
<polygon fill="black" stroke="black" points="245.59,-630.84 241.73,-620.97 238.59,-631.09 245.59,-630.84"/>
<text text-anchor="middle" x="279.22" y="-662.2" font-family="Arial" font-size="14.00">parsed data</text>
</g>
<!-- hdf_files&#45;&gt;kpi_hdf_parser -->
<g id="edge5" class="edge">
<title>hdf_files&#45;&gt;kpi_hdf_parser</title>
<path fill="none" stroke="black" d="M245,-784.49C245,-772.21 245,-757.53 245,-744.77"/>
<polygon fill="black" stroke="black" points="248.5,-744.79 245,-734.79 241.5,-744.79 248.5,-744.79"/>
<text text-anchor="middle" x="285.12" y="-753.45" font-family="Arial" font-size="14.00">HDF5 groups</text>
</g>
<!-- stream_input -->
<g id="node8" class="node">
<title>stream_input</title>
<polygon fill="mistyrose" stroke="black" points="167.62,-542.75 32.38,-542.75 32.38,-506.75 167.62,-506.75 167.62,-542.75"/>
<text text-anchor="middle" x="100" y="-519.33" font-family="Arial" font-size="14.00">Stream Input Model</text>
</g>
<!-- data_model&#45;&gt;stream_input -->
<g id="edge7" class="edge">
<title>data_model&#45;&gt;stream_input</title>
<path fill="none" stroke="black" d="M203.95,-579.39C185.56,-569.89 163.2,-558.36 143.94,-548.42"/>
<polygon fill="black" stroke="black" points="145.74,-545.41 135.25,-543.94 142.53,-551.63 145.74,-545.41"/>
</g>
<!-- stream_output -->
<g id="node9" class="node">
<title>stream_output</title>
<polygon fill="mistyrose" stroke="black" points="332.25,-542.75 185.75,-542.75 185.75,-506.75 332.25,-506.75 332.25,-542.75"/>
<text text-anchor="middle" x="259" y="-519.33" font-family="Arial" font-size="14.00">Stream Output Model</text>
</g>
<!-- data_model&#45;&gt;stream_output -->
<g id="edge8" class="edge">
<title>data_model&#45;&gt;stream_output</title>
<path fill="none" stroke="black" d="M245.73,-579.39C247.65,-571.63 249.9,-562.51 252.01,-554.01"/>
<polygon fill="black" stroke="black" points="255.36,-555.01 254.37,-544.47 248.57,-553.33 255.36,-555.01"/>
</g>
<!-- kpi_factory -->
<g id="node10" class="node">
<title>kpi_factory</title>
<polygon fill="lightcoral" stroke="black" points="240.25,-432.5 129.75,-432.5 129.75,-393 240.25,-393 240.25,-432.5"/>
<text text-anchor="middle" x="185" y="-415.2" font-family="Arial" font-size="14.00">kpi_factory.py</text>
<text text-anchor="middle" x="185" y="-399.45" font-family="Arial" font-size="14.00">(KpiDataModel)</text>
</g>
<!-- stream_input&#45;&gt;kpi_factory -->
<g id="edge9" class="edge">
<title>stream_input&#45;&gt;kpi_factory</title>
<path fill="none" stroke="black" d="M113.28,-506.56C126.72,-489.17 147.73,-461.99 163.54,-441.53"/>
<polygon fill="black" stroke="black" points="166.12,-443.91 169.46,-433.86 160.58,-439.63 166.12,-443.91"/>
<text text-anchor="middle" x="167.04" y="-475.45" font-family="Arial" font-size="14.00">input data</text>
</g>
<!-- stream_output&#45;&gt;kpi_factory -->
<g id="edge10" class="edge">
<title>stream_output&#45;&gt;kpi_factory</title>
<path fill="none" stroke="black" d="M247.44,-506.56C235.84,-489.32 217.78,-462.48 204.06,-442.08"/>
<polygon fill="black" stroke="black" points="207.05,-440.26 198.57,-433.92 201.24,-444.17 207.05,-440.26"/>
<text text-anchor="middle" x="268.81" y="-475.45" font-family="Arial" font-size="14.00">output data</text>
</g>
<!-- alignment_kpi -->
<g id="node11" class="node">
<title>alignment_kpi</title>
<polygon fill="salmon" stroke="black" points="118.12,-356 15.88,-356 15.88,-320 118.12,-320 118.12,-356"/>
<text text-anchor="middle" x="67" y="-332.57" font-family="Arial" font-size="14.00">Alignment KPI</text>
</g>
<!-- kpi_factory&#45;&gt;alignment_kpi -->
<g id="edge11" class="edge">
<title>kpi_factory&#45;&gt;alignment_kpi</title>
<path fill="none" stroke="black" d="M154,-392.64C138.96,-383.36 120.75,-372.14 104.89,-362.36"/>
<polygon fill="black" stroke="black" points="107.01,-359.56 96.66,-357.29 103.34,-365.51 107.01,-359.56"/>
</g>
<!-- detection_kpi -->
<g id="node12" class="node">
<title>detection_kpi</title>
<polygon fill="salmon" stroke="black" points="234.25,-356 135.75,-356 135.75,-320 234.25,-320 234.25,-356"/>
<text text-anchor="middle" x="185" y="-332.57" font-family="Arial" font-size="14.00">Detection KPI</text>
</g>
<!-- kpi_factory&#45;&gt;detection_kpi -->
<g id="edge12" class="edge">
<title>kpi_factory&#45;&gt;detection_kpi</title>
<path fill="none" stroke="black" d="M185,-392.64C185,-384.97 185,-375.97 185,-367.55"/>
<polygon fill="black" stroke="black" points="188.5,-367.76 185,-357.76 181.5,-367.76 188.5,-367.76"/>
</g>
<!-- tracker_kpi -->
<g id="node13" class="node">
<title>tracker_kpi</title>
<polygon fill="salmon" stroke="black" points="339.62,-356 252.38,-356 252.38,-320 339.62,-320 339.62,-356"/>
<text text-anchor="middle" x="296" y="-332.57" font-family="Arial" font-size="14.00">Tracker KPI</text>
</g>
<!-- kpi_factory&#45;&gt;tracker_kpi -->
<g id="edge13" class="edge">
<title>kpi_factory&#45;&gt;tracker_kpi</title>
<path fill="none" stroke="black" d="M214.16,-392.64C228.18,-383.45 245.11,-372.35 259.93,-362.64"/>
<polygon fill="black" stroke="black" points="261.6,-365.73 268.05,-357.32 257.76,-359.88 261.6,-365.73"/>
</g>
<!-- html_report -->
<g id="node14" class="node">
<title>html_report</title>
<polygon fill="lavender" stroke="black" points="268.88,-260.5 171.12,-260.5 171.12,-221 268.88,-221 268.88,-260.5"/>
<text text-anchor="middle" x="220" y="-243.2" font-family="Arial" font-size="14.00">HTML Report</text>
<text text-anchor="middle" x="220" y="-227.45" font-family="Arial" font-size="14.00">Generation</text>
</g>
<!-- alignment_kpi&#45;&gt;html_report -->
<g id="edge14" class="edge">
<title>alignment_kpi&#45;&gt;html_report</title>
<path fill="none" stroke="black" d="M95.06,-319.53C118.8,-304.75 153.12,-283.39 179.78,-266.79"/>
<polygon fill="black" stroke="black" points="181.3,-269.97 187.94,-261.71 177.6,-264.02 181.3,-269.97"/>
</g>
<!-- detection_kpi&#45;&gt;html_report -->
<g id="edge15" class="edge">
<title>detection_kpi&#45;&gt;html_report</title>
<path fill="none" stroke="black" d="M191.42,-319.53C196.39,-306 203.39,-286.96 209.21,-271.1"/>
<polygon fill="black" stroke="black" points="212.34,-272.76 212.5,-262.16 205.76,-270.34 212.34,-272.76"/>
</g>
<!-- tracker_kpi&#45;&gt;html_report -->
<g id="edge16" class="edge">
<title>tracker_kpi&#45;&gt;html_report</title>
<path fill="none" stroke="black" d="M282.06,-319.53C270.96,-305.61 255.19,-285.86 242.33,-269.74"/>
<polygon fill="black" stroke="black" points="245.07,-267.56 236.1,-261.93 239.6,-271.93 245.07,-267.56"/>
</g>
<!-- html_report&#45;&gt;kpi_server -->
<g id="edge17" class="edge">
<title>html_report&#45;&gt;kpi_server</title>
<path fill="none" stroke="black" d="M231.35,-220.54C241.7,-203 257.16,-176.84 268.99,-156.8"/>
<polygon fill="black" stroke="black" points="271.96,-158.65 274.03,-148.26 265.93,-155.09 271.96,-158.65"/>
<text text-anchor="middle" x="282.8" y="-189.7" font-family="Arial" font-size="14.00">HTML path</text>
</g>
</g>
</svg>
