<?xml version="1.0" encoding="UTF-8" standalone="no"?>
<!DOCTYPE svg PUBLIC "-//W3C//DTD SVG 1.1//EN"
 "http://www.w3.org/Graphics/SVG/1.1/DTD/svg11.dtd">
<!-- Generated by graphviz version 12.1.2 (20240928.0832)
 -->
<!-- Pages: 1 -->
<svg width="411pt" height="248pt"
 viewBox="0.00 0.00 411.25 247.75" xmlns="http://www.w3.org/2000/svg" xmlns:xlink="http://www.w3.org/1999/xlink">
<g id="graph0" class="graph" transform="scale(1 1) rotate(0) translate(4 243.75)">
<polygon fill="white" stroke="none" points="-4,4 -4,-243.75 407.25,-243.75 407.25,4 -4,4"/>
<!-- DetectionMappingKPIHDF -->
<g id="node1" class="node">
<title>DetectionMappingKPIHDF</title>
<polygon fill="#2c3e50" stroke="none" points="8,-210 8,-235.75 395.25,-235.75 395.25,-210 8,-210"/>
<polygon fill="none" stroke="black" points="8,-210 8,-235.75 395.25,-235.75 395.25,-210 8,-210"/>
<text text-anchor="start" x="114.62" y="-217.45" font-family="Arial" font-size="14.00" fill="white">«DetectionMappingKPIHDF»</text>
<polygon fill="none" stroke="black" points="8,-184.25 8,-210 395.25,-210 395.25,-184.25 8,-184.25"/>
<text text-anchor="start" x="13" y="-191.7" font-family="Arial" font-size="14.00">+ __init__(data, sensor_id)</text>
<polygon fill="none" stroke="black" points="8,-158.5 8,-184.25 395.25,-184.25 395.25,-158.5 8,-158.5"/>
<text text-anchor="start" x="13" y="-165.95" font-family="Arial" font-size="14.00">+ extract_data_from_hdf(data_model, stream_type)</text>
<polygon fill="none" stroke="black" points="8,-132.75 8,-158.5 395.25,-158.5 395.25,-132.75 8,-132.75"/>
<text text-anchor="start" x="13" y="-140.2" font-family="Arial" font-size="14.00">+ convert_to_dataframe(data_dict, max_items, param_names)</text>
<polygon fill="none" stroke="black" points="8,-107 8,-132.75 395.25,-132.75 395.25,-107 8,-107"/>
<text text-anchor="start" x="13" y="-114.45" font-family="Arial" font-size="14.00">+ process_detection_matching()</text>
<polygon fill="none" stroke="black" points="8,-81.25 8,-107 395.25,-107 395.25,-81.25 8,-81.25"/>
<text text-anchor="start" x="13" y="-88.7" font-family="Arial" font-size="14.00">+ process_rdd_matching(input_rdd_data, output_rdd_data)</text>
<polygon fill="none" stroke="black" points="8,-55.5 8,-81.25 395.25,-81.25 395.25,-55.5 8,-55.5"/>
<text text-anchor="start" x="13" y="-62.95" font-family="Arial" font-size="14.00">+ process_af_detection_matching(veh_det_df, sim_det_df)</text>
<polygon fill="none" stroke="black" points="8,-29.75 8,-55.5 395.25,-55.5 395.25,-29.75 8,-29.75"/>
<text text-anchor="start" x="13" y="-37.2" font-family="Arial" font-size="14.00">+ generate_html_report()</text>
<polygon fill="none" stroke="black" points="8,-4 8,-29.75 395.25,-29.75 395.25,-4 8,-4"/>
<text text-anchor="start" x="13" y="-11.45" font-family="Arial" font-size="14.00">+ get_results()</text>
</g>
</g>
</svg>
