<?xml version="1.0" encoding="UTF-8" standalone="no"?>
<!DOCTYPE svg PUBLIC "-//W3C//DTD SVG 1.1//EN"
 "http://www.w3.org/Graphics/SVG/1.1/DTD/svg11.dtd">
<!-- Generated by graphviz version 12.1.2 (20240928.0832)
 -->
<!-- Title: DataPrepFlow Pages: 1 -->
<svg width="1597pt" height="1066pt"
 viewBox="0.00 0.00 1597.00 1066.00" xmlns="http://www.w3.org/2000/svg" xmlns:xlink="http://www.w3.org/1999/xlink">
<g id="graph0" class="graph" transform="scale(1 1) rotate(0) translate(4 1062)">
<title>DataPrepFlow</title>
<polygon fill="white" stroke="none" points="-4,4 -4,-1062 1593,-1062 1593,4 -4,4"/>
<g id="clust1" class="cluster">
<title>cluster_inputs</title>
<polygon fill="lightblue" stroke="lightblue" points="8,-965.5 8,-1050 947,-1050 947,-965.5 8,-965.5"/>
<text text-anchor="middle" x="477.5" y="-1032.7" font-family="Times New Roman,serif" font-size="14.00">Input Parameters</text>
</g>
<g id="clust2" class="cluster">
<title>cluster_dataprep</title>
<polygon fill="lightgreen" stroke="lightgreen" points="293,-714.5 293,-946.5 475,-946.5 475,-714.5 293,-714.5"/>
<text text-anchor="middle" x="384" y="-929.2" font-family="Times New Roman,serif" font-size="14.00">DataPrep Class</text>
</g>
<g id="clust3" class="cluster">
<title>cluster_plot_gen</title>
<polygon fill="lightcoral" stroke="lightcoral" points="161,-426 161,-686 571,-686 571,-426 161,-426"/>
<text text-anchor="middle" x="366" y="-668.7" font-family="Times New Roman,serif" font-size="14.00">Plot Generation Process</text>
</g>
<g id="clust4" class="cluster">
<title>cluster_signal_processing</title>
<polygon fill="lightsteelblue" stroke="lightsteelblue" points="580,-516.5 580,-946.5 752,-946.5 752,-516.5 580,-516.5"/>
<text text-anchor="middle" x="666" y="-929.2" font-family="Times New Roman,serif" font-size="14.00">Individual Signal Processing</text>
</g>
<g id="clust5" class="cluster">
<title>cluster_html_gen</title>
<polygon fill="lightpink" stroke="lightpink" points="502,-111.5 502,-407 806,-407 806,-111.5 502,-111.5"/>
<text text-anchor="middle" x="654" y="-389.7" font-family="Times New Roman,serif" font-size="14.00">HTML Generation</text>
</g>
<g id="clust6" class="cluster">
<title>cluster_outputs</title>
<polygon fill="#eedd82" stroke="#eedd82" points="397,-8 397,-92.5 953,-92.5 953,-8 397,-8"/>
<text text-anchor="middle" x="675" y="-75.2" font-family="Times New Roman,serif" font-size="14.00">Generated Outputs</text>
</g>
<g id="clust7" class="cluster">
<title>cluster_legend</title>
<polygon fill="white" stroke="white" points="955,-969.5 955,-1046 1581,-1046 1581,-969.5 955,-969.5"/>
<text text-anchor="middle" x="1268" y="-1028.7" font-family="Times New Roman,serif" font-size="14.00">Legend</text>
</g>
<!-- input_data -->
<g id="node1" class="node">
<title>input_data</title>
<path fill="lightcyan" stroke="black" d="M682.5,-1013.5C682.5,-1015.71 659.42,-1017.5 631,-1017.5 602.58,-1017.5 579.5,-1015.71 579.5,-1013.5 579.5,-1013.5 579.5,-977.5 579.5,-977.5 579.5,-975.29 602.58,-973.5 631,-973.5 659.42,-973.5 682.5,-975.29 682.5,-977.5 682.5,-977.5 682.5,-1013.5 682.5,-1013.5"/>
<path fill="none" stroke="black" d="M682.5,-1013.5C682.5,-1011.29 659.42,-1009.5 631,-1009.5 602.58,-1009.5 579.5,-1011.29 579.5,-1013.5"/>
<text text-anchor="middle" x="631" y="-998" font-family="Arial" font-size="10.00">input_data</text>
<text text-anchor="middle" x="631" y="-986" font-family="Arial" font-size="10.00">(DataModelStorage)</text>
</g>
<!-- dataprep_init -->
<g id="node10" class="node">
<title>dataprep_init</title>
<polygon fill="palegreen" stroke="black" points="467.38,-914 342.62,-914 342.62,-878 467.38,-878 467.38,-914"/>
<text text-anchor="middle" x="405" y="-898.5" font-family="Arial" font-size="10.00">DataPrep.__init__()</text>
<text text-anchor="middle" x="405" y="-886.5" font-family="Arial" font-size="10.00">Initialize with parameters</text>
</g>
<!-- input_data&#45;&gt;dataprep_init -->
<g id="edge1" class="edge">
<title>input_data&#45;&gt;dataprep_init</title>
<path fill="none" stroke="black" d="M588.8,-974.1C582.52,-971.16 576.11,-968.22 570,-965.5 533.34,-949.19 491.59,-931.87 459.26,-918.73"/>
<polygon fill="black" stroke="black" points="460.67,-915.52 450.08,-915 458.04,-922 460.67,-915.52"/>
</g>
<!-- get_data_cached -->
<g id="node19" class="node">
<title>get_data_cached</title>
<polygon fill="lightblue" stroke="black" points="744,-841 614,-841 614,-805 744,-805 744,-841"/>
<text text-anchor="middle" x="679" y="-825.5" font-family="Arial" font-size="10.00">_get_data_cached()</text>
<text text-anchor="middle" x="679" y="-813.5" font-family="Arial" font-size="10.00">LRU cached data retrieval</text>
</g>
<!-- input_data&#45;&gt;get_data_cached -->
<g id="edge33" class="edge">
<title>input_data&#45;&gt;get_data_cached</title>
<path fill="none" stroke="blue" stroke-dasharray="5,2" d="M622.65,-973.3C614.5,-949.14 605.19,-909.02 619,-878 624.01,-866.75 632.66,-856.85 641.85,-848.72"/>
<polygon fill="blue" stroke="blue" points="644.03,-851.46 649.56,-842.42 639.6,-846.04 644.03,-851.46"/>
</g>
<!-- output_data -->
<g id="node2" class="node">
<title>output_data</title>
<path fill="lightcyan" stroke="black" d="M803.5,-1013.5C803.5,-1015.71 780.42,-1017.5 752,-1017.5 723.58,-1017.5 700.5,-1015.71 700.5,-1013.5 700.5,-1013.5 700.5,-977.5 700.5,-977.5 700.5,-975.29 723.58,-973.5 752,-973.5 780.42,-973.5 803.5,-975.29 803.5,-977.5 803.5,-977.5 803.5,-1013.5 803.5,-1013.5"/>
<path fill="none" stroke="black" d="M803.5,-1013.5C803.5,-1011.29 780.42,-1009.5 752,-1009.5 723.58,-1009.5 700.5,-1011.29 700.5,-1013.5"/>
<text text-anchor="middle" x="752" y="-998" font-family="Arial" font-size="10.00">output_data</text>
<text text-anchor="middle" x="752" y="-986" font-family="Arial" font-size="10.00">(DataModelStorage)</text>
</g>
<!-- output_data&#45;&gt;dataprep_init -->
<g id="edge2" class="edge">
<title>output_data&#45;&gt;dataprep_init</title>
<path fill="none" stroke="black" d="M713.29,-973.8C706.34,-970.66 699.06,-967.73 692,-965.5 642.19,-949.75 626.96,-958.01 576,-946.5 540.54,-938.49 501.56,-927.39 469.79,-917.73"/>
<polygon fill="black" stroke="black" points="470.9,-914.41 460.31,-914.83 468.85,-921.11 470.9,-914.41"/>
</g>
<!-- output_data&#45;&gt;get_data_cached -->
<g id="edge34" class="edge">
<title>output_data&#45;&gt;get_data_cached</title>
<path fill="none" stroke="blue" stroke-dasharray="5,2" d="M757.16,-973.42C761.97,-949.02 766.33,-908.33 751,-878 744.89,-865.91 734.66,-855.81 723.79,-847.75"/>
<polygon fill="blue" stroke="blue" points="726.08,-845.07 715.85,-842.3 722.12,-850.84 726.08,-845.07"/>
</g>
<!-- html_name -->
<g id="node3" class="node">
<title>html_name</title>
<polygon fill="lightyellow" stroke="black" points="459,-1013.5 395,-1013.5 395,-977.5 459,-977.5 459,-1013.5"/>
<text text-anchor="middle" x="427" y="-998" font-family="Arial" font-size="10.00">html_name</text>
<text text-anchor="middle" x="427" y="-986" font-family="Arial" font-size="10.00">(String)</text>
</g>
<!-- html_name&#45;&gt;dataprep_init -->
<g id="edge3" class="edge">
<title>html_name&#45;&gt;dataprep_init</title>
<path fill="none" stroke="black" d="M423.07,-977.07C419.81,-962.65 415.13,-941.89 411.35,-925.12"/>
<polygon fill="black" stroke="black" points="414.85,-924.74 409.23,-915.76 408.02,-926.28 414.85,-924.74"/>
</g>
<!-- sensor -->
<g id="node4" class="node">
<title>sensor</title>
<polygon fill="lightyellow" stroke="black" points="70,-1013.5 16,-1013.5 16,-977.5 70,-977.5 70,-1013.5"/>
<text text-anchor="middle" x="43" y="-998" font-family="Arial" font-size="10.00">sensor</text>
<text text-anchor="middle" x="43" y="-986" font-family="Arial" font-size="10.00">(String)</text>
</g>
<!-- sensor&#45;&gt;dataprep_init -->
<g id="edge4" class="edge">
<title>sensor&#45;&gt;dataprep_init</title>
<path fill="none" stroke="black" d="M61.29,-977.03C66.65,-972.7 72.76,-968.46 79,-965.5 101.58,-954.8 242.3,-927.32 331.32,-910.6"/>
<polygon fill="black" stroke="black" points="331.78,-914.07 340.96,-908.79 330.49,-907.19 331.78,-914.07"/>
</g>
<!-- create_folder_structure -->
<g id="node24" class="node">
<title>create_folder_structure</title>
<polygon fill="pink" stroke="black" points="797.5,-301.5 670.5,-301.5 670.5,-265.5 797.5,-265.5 797.5,-301.5"/>
<text text-anchor="middle" x="734" y="-286" font-family="Arial" font-size="10.00">_create_folder_structure()</text>
<text text-anchor="middle" x="734" y="-274" font-family="Arial" font-size="10.00">Organize directories</text>
</g>
<!-- sensor&#45;&gt;create_folder_structure -->
<g id="edge36" class="edge">
<title>sensor&#45;&gt;create_folder_structure</title>
<path fill="none" stroke="blue" stroke-dasharray="5,2" d="M58.88,-977.29C74.18,-958.87 95,-928.08 95,-897 95,-897 95,-897 95,-355.5 95,-294.98 557.24,-310.21 658.8,-301.24"/>
<polygon fill="blue" stroke="blue" points="658.98,-304.74 668.5,-300.09 658.16,-297.79 658.98,-304.74"/>
</g>
<!-- stream_name -->
<g id="node5" class="node">
<title>stream_name</title>
<polygon fill="lightyellow" stroke="black" points="376.62,-1013.5 301.38,-1013.5 301.38,-977.5 376.62,-977.5 376.62,-1013.5"/>
<text text-anchor="middle" x="339" y="-998" font-family="Arial" font-size="10.00">stream_name</text>
<text text-anchor="middle" x="339" y="-986" font-family="Arial" font-size="10.00">(String)</text>
</g>
<!-- stream_name&#45;&gt;dataprep_init -->
<g id="edge5" class="edge">
<title>stream_name&#45;&gt;dataprep_init</title>
<path fill="none" stroke="black" d="M350.8,-977.07C360.84,-962.23 375.43,-940.69 386.94,-923.68"/>
<polygon fill="black" stroke="black" points="389.75,-925.78 392.45,-915.53 383.95,-921.85 389.75,-925.78"/>
</g>
<!-- get_stream_signals -->
<g id="node15" class="node">
<title>get_stream_signals</title>
<polygon fill="mistyrose" stroke="black" points="289.12,-643.5 168.88,-643.5 168.88,-607.5 289.12,-607.5 289.12,-643.5"/>
<text text-anchor="middle" x="229" y="-628" font-family="Arial" font-size="10.00">Get Stream Signals</text>
<text text-anchor="middle" x="229" y="-616" font-family="Arial" font-size="10.00">from Gen7V1_V2 config</text>
</g>
<!-- stream_name&#45;&gt;get_stream_signals -->
<g id="edge35" class="edge">
<title>stream_name&#45;&gt;get_stream_signals</title>
<path fill="none" stroke="blue" stroke-dasharray="5,2" d="M314.03,-977.08C292.21,-959.6 264,-930.53 264,-897 264,-897 264,-897 264,-739.5 264,-709.46 252.57,-676.85 242.78,-654.42"/>
<polygon fill="blue" stroke="blue" points="245.98,-653.01 238.64,-645.36 239.61,-655.91 245.98,-653.01"/>
</g>
<!-- stream_name&#45;&gt;create_folder_structure -->
<g id="edge37" class="edge">
<title>stream_name&#45;&gt;create_folder_structure</title>
<path fill="none" stroke="blue" stroke-dasharray="5,2" d="M361.78,-977.28C369.14,-972.61 377.58,-968.12 386,-965.5 425.3,-953.25 724.81,-973.37 756,-946.5 865.82,-851.89 819,-771.45 819,-626.5 819,-626.5 819,-626.5 819,-355.5 819,-334.9 804.11,-319.1 786.79,-307.7"/>
<polygon fill="blue" stroke="blue" points="788.67,-304.75 778.3,-302.59 785.06,-310.75 788.67,-304.75"/>
</g>
<!-- input_file_name -->
<g id="node6" class="node">
<title>input_file_name</title>
<polygon fill="lightyellow" stroke="black" points="561.12,-1013.5 476.88,-1013.5 476.88,-977.5 561.12,-977.5 561.12,-1013.5"/>
<text text-anchor="middle" x="519" y="-998" font-family="Arial" font-size="10.00">input_file_name</text>
<text text-anchor="middle" x="519" y="-986" font-family="Arial" font-size="10.00">(String)</text>
</g>
<!-- input_file_name&#45;&gt;dataprep_init -->
<g id="edge6" class="edge">
<title>input_file_name&#45;&gt;dataprep_init</title>
<path fill="none" stroke="black" d="M498.62,-977.07C480.54,-961.61 453.95,-938.86 433.72,-921.56"/>
<polygon fill="black" stroke="black" points="436.23,-919.1 426.35,-915.26 431.68,-924.42 436.23,-919.1"/>
</g>
<!-- output_file_name -->
<g id="node7" class="node">
<title>output_file_name</title>
<polygon fill="lightyellow" stroke="black" points="178.12,-1013.5 87.88,-1013.5 87.88,-977.5 178.12,-977.5 178.12,-1013.5"/>
<text text-anchor="middle" x="133" y="-998" font-family="Arial" font-size="10.00">output_file_name</text>
<text text-anchor="middle" x="133" y="-986" font-family="Arial" font-size="10.00">(String)</text>
</g>
<!-- output_file_name&#45;&gt;dataprep_init -->
<g id="edge7" class="edge">
<title>output_file_name&#45;&gt;dataprep_init</title>
<path fill="none" stroke="black" d="M163.07,-977.06C170.73,-972.98 179.06,-968.85 187,-965.5 233.92,-945.74 288.58,-928.58 331.43,-916.37"/>
<polygon fill="black" stroke="black" points="332.2,-919.79 340.88,-913.71 330.31,-913.05 332.2,-919.79"/>
</g>
<!-- output_dir -->
<g id="node8" class="node">
<title>output_dir</title>
<polygon fill="lightyellow" stroke="black" points="283.62,-1013.5 196.38,-1013.5 196.38,-977.5 283.62,-977.5 283.62,-1013.5"/>
<text text-anchor="middle" x="240" y="-998" font-family="Arial" font-size="10.00">output_dir</text>
<text text-anchor="middle" x="240" y="-986" font-family="Arial" font-size="10.00">(String, optional)</text>
</g>
<!-- output_dir&#45;&gt;dataprep_init -->
<g id="edge8" class="edge">
<title>output_dir&#45;&gt;dataprep_init</title>
<path fill="none" stroke="black" d="M269.5,-977.07C296.4,-961.17 336.33,-937.57 365.89,-920.11"/>
<polygon fill="black" stroke="black" points="367.35,-923.31 374.18,-915.21 363.79,-917.29 367.35,-923.31"/>
</g>
<!-- generate_html -->
<g id="node9" class="node">
<title>generate_html</title>
<polygon fill="lightyellow" stroke="black" points="938.62,-1013.5 821.38,-1013.5 821.38,-977.5 938.62,-977.5 938.62,-1013.5"/>
<text text-anchor="middle" x="880" y="-998" font-family="Arial" font-size="10.00">generate_html</text>
<text text-anchor="middle" x="880" y="-986" font-family="Arial" font-size="10.00">(Boolean, default: True)</text>
</g>
<!-- generate_html&#45;&gt;dataprep_init -->
<g id="edge9" class="edge">
<title>generate_html&#45;&gt;dataprep_init</title>
<path fill="none" stroke="black" d="M845.64,-977.06C835.38,-972.56 823.95,-968.23 813,-965.5 710.46,-939.95 679.95,-965.51 576,-946.5 538.85,-939.71 498.21,-928.12 465.87,-917.87"/>
<polygon fill="black" stroke="black" points="467.27,-914.64 456.68,-914.91 465.13,-921.3 467.27,-914.64"/>
</g>
<!-- html_generator -->
<g id="node23" class="node">
<title>html_generator</title>
<polygon fill="pink" stroke="black" points="715.88,-374.5 636.12,-374.5 636.12,-338.5 715.88,-338.5 715.88,-374.5"/>
<text text-anchor="middle" x="676" y="-359" font-family="Arial" font-size="10.00">HtmlGenerator</text>
<text text-anchor="middle" x="676" y="-347" font-family="Arial" font-size="10.00">Constructor</text>
</g>
<!-- generate_html&#45;&gt;html_generator -->
<g id="edge38" class="edge">
<title>generate_html&#45;&gt;html_generator</title>
<path fill="none" stroke="red" stroke-dasharray="1,5" d="M871.76,-977.04C851.33,-932.72 798.62,-811.78 779.5,-704.5 773.41,-670.37 778,-661.17 778,-626.5 778,-626.5 778,-626.5 778,-455 778,-422.27 750.22,-397.15 723.66,-380.61"/>
<polygon fill="red" stroke="red" points="725.68,-377.74 715.28,-375.67 722.12,-383.77 725.68,-377.74"/>
<text text-anchor="middle" x="792.25" y="-695.95" font-family="Arial" font-size="9.00">if True</text>
</g>
<!-- temp_cleanup -->
<g id="node32" class="node">
<title>temp_cleanup</title>
<polygon fill="lightyellow" stroke="black" points="944.5,-56 823.5,-56 823.5,-20 944.5,-20 944.5,-56"/>
<text text-anchor="middle" x="884" y="-40.5" font-family="Arial" font-size="10.00">Cleanup Temp Directory</text>
<text text-anchor="middle" x="884" y="-28.5" font-family="Arial" font-size="10.00">Remove temporary files</text>
</g>
<!-- generate_html&#45;&gt;temp_cleanup -->
<g id="edge39" class="edge">
<title>generate_html&#45;&gt;temp_cleanup</title>
<path fill="none" stroke="red" stroke-dasharray="1,5" d="M881.14,-977.25C882.32,-957.77 884,-925.12 884,-897 884,-897 884,-897 884,-136.5 884,-113.34 884,-87.09 884,-67.66"/>
<polygon fill="red" stroke="red" points="887.5,-67.77 884,-57.77 880.5,-67.77 887.5,-67.77"/>
<text text-anchor="middle" x="898.62" y="-497.95" font-family="Arial" font-size="9.00">if False</text>
</g>
<!-- track_memory -->
<g id="node11" class="node">
<title>track_memory</title>
<polygon fill="palegreen" stroke="black" points="446.5,-841 301.5,-841 301.5,-805 446.5,-805 446.5,-841"/>
<text text-anchor="middle" x="374" y="-825.5" font-family="Arial" font-size="10.00">_track_memory_usage()</text>
<text text-anchor="middle" x="374" y="-813.5" font-family="Arial" font-size="10.00">Monitor memory consumption</text>
</g>
<!-- dataprep_init&#45;&gt;track_memory -->
<g id="edge10" class="edge">
<title>dataprep_init&#45;&gt;track_memory</title>
<path fill="none" stroke="black" d="M397.5,-877.81C394.03,-869.88 389.83,-860.26 385.95,-851.36"/>
<polygon fill="black" stroke="black" points="389.25,-850.18 382.04,-842.42 382.83,-852.98 389.25,-850.18"/>
</g>
<!-- generate_plots -->
<g id="node12" class="node">
<title>generate_plots</title>
<polygon fill="palegreen" stroke="black" points="443.5,-758.5 304.5,-758.5 304.5,-722.5 443.5,-722.5 443.5,-758.5"/>
<text text-anchor="middle" x="374" y="-743" font-family="Arial" font-size="10.00">generate_plots()</text>
<text text-anchor="middle" x="374" y="-731" font-family="Arial" font-size="10.00">Main plot generation method</text>
</g>
<!-- dataprep_init&#45;&gt;generate_plots -->
<g id="edge11" class="edge">
<title>dataprep_init&#45;&gt;generate_plots</title>
<path fill="none" stroke="black" d="M427.93,-877.6C438.58,-868.09 450.15,-855.33 456,-841 466.84,-814.46 472.85,-800.39 457,-776.5 454.28,-772.4 450.97,-768.77 447.26,-765.57"/>
<polygon fill="black" stroke="black" points="449.34,-762.76 439.18,-759.73 445.24,-768.43 449.34,-762.76"/>
</g>
<!-- track_memory&#45;&gt;generate_plots -->
<g id="edge40" class="edge">
<title>track_memory&#45;&gt;generate_plots</title>
<path fill="none" stroke="orange" stroke-dasharray="5,2" d="M374,-804.53C374,-794.51 374,-781.68 374,-770.21"/>
<polygon fill="orange" stroke="orange" points="377.5,-770.45 374,-760.45 370.5,-770.45 377.5,-770.45"/>
<text text-anchor="middle" x="413.38" y="-778.45" font-family="Arial" font-size="9.00">Memory monitoring</text>
</g>
<!-- import_data_cal -->
<g id="node13" class="node">
<title>import_data_cal</title>
<polygon fill="mistyrose" stroke="black" points="562.88,-643.5 441.12,-643.5 441.12,-607.5 562.88,-607.5 562.88,-643.5"/>
<text text-anchor="middle" x="502" y="-628" font-family="Arial" font-size="10.00">Import DataCalculations</text>
<text text-anchor="middle" x="502" y="-616" font-family="Arial" font-size="10.00">from data_cal module</text>
</g>
<!-- generate_plots&#45;&gt;import_data_cal -->
<g id="edge12" class="edge">
<title>generate_plots&#45;&gt;import_data_cal</title>
<path fill="none" stroke="black" d="M393.72,-722.09C415.2,-703.12 449.75,-672.63 474.03,-651.19"/>
<polygon fill="black" stroke="black" points="476.15,-653.99 481.33,-644.74 471.52,-648.74 476.15,-653.99"/>
</g>
<!-- setup_multiprocessing -->
<g id="node14" class="node">
<title>setup_multiprocessing</title>
<polygon fill="mistyrose" stroke="black" points="423.25,-653.5 306.75,-653.5 306.75,-597.5 423.25,-597.5 423.25,-653.5"/>
<text text-anchor="middle" x="365" y="-640" font-family="Arial" font-size="10.00">Setup Multiprocessing</text>
<text text-anchor="middle" x="365" y="-628" font-family="Arial" font-size="10.00">&#45; Create temp directory</text>
<text text-anchor="middle" x="365" y="-616" font-family="Arial" font-size="10.00">&#45; Prepare shared data</text>
<text text-anchor="middle" x="365" y="-604" font-family="Arial" font-size="10.00">&#45; Configure pool</text>
</g>
<!-- generate_plots&#45;&gt;setup_multiprocessing -->
<g id="edge13" class="edge">
<title>generate_plots&#45;&gt;setup_multiprocessing</title>
<path fill="none" stroke="black" d="M372.63,-722.34C371.43,-707.23 369.63,-684.69 368.09,-665.26"/>
<polygon fill="black" stroke="black" points="371.59,-665.15 367.31,-655.46 364.61,-665.71 371.59,-665.15"/>
</g>
<!-- generate_plots&#45;&gt;get_stream_signals -->
<g id="edge14" class="edge">
<title>generate_plots&#45;&gt;get_stream_signals</title>
<path fill="none" stroke="black" d="M347.86,-722.04C332.99,-711.87 314.16,-698.6 298,-686 284.05,-675.12 269.12,-662.39 256.73,-651.5"/>
<polygon fill="black" stroke="black" points="259.14,-648.96 249.33,-644.95 254.5,-654.2 259.14,-648.96"/>
</g>
<!-- process_signals -->
<g id="node16" class="node">
<title>process_signals</title>
<polygon fill="mistyrose" stroke="black" points="552.5,-560.5 449.5,-560.5 449.5,-524.5 552.5,-524.5 552.5,-560.5"/>
<text text-anchor="middle" x="501" y="-545" font-family="Arial" font-size="10.00">Process Signals</text>
<text text-anchor="middle" x="501" y="-533" font-family="Arial" font-size="10.00">(Parallel/Sequential)</text>
</g>
<!-- get_stream_signals&#45;&gt;process_signals -->
<g id="edge15" class="edge">
<title>get_stream_signals&#45;&gt;process_signals</title>
<path fill="none" stroke="black" d="M271.42,-607.03C280.15,-603.69 289.32,-600.34 298,-597.5 344.41,-582.3 397.81,-568.23 438.19,-558.26"/>
<polygon fill="black" stroke="black" points="438.87,-561.7 447.75,-555.92 437.2,-554.9 438.87,-561.7"/>
</g>
<!-- signal_plot_paths -->
<g id="node17" class="node">
<title>signal_plot_paths</title>
<path fill="lightcyan" stroke="black" d="M562.62,-474C562.62,-476.21 535,-478 501,-478 467,-478 439.38,-476.21 439.38,-474 439.38,-474 439.38,-438 439.38,-438 439.38,-435.79 467,-434 501,-434 535,-434 562.62,-435.79 562.62,-438 562.62,-438 562.62,-474 562.62,-474"/>
<path fill="none" stroke="black" d="M562.62,-474C562.62,-471.79 535,-470 501,-470 467,-470 439.38,-471.79 439.38,-474"/>
<text text-anchor="middle" x="501" y="-458.5" font-family="Arial" font-size="10.00">signal_plot_paths</text>
<text text-anchor="middle" x="501" y="-446.5" font-family="Arial" font-size="10.00">(Dictionary of plot paths)</text>
</g>
<!-- process_signals&#45;&gt;signal_plot_paths -->
<g id="edge16" class="edge">
<title>process_signals&#45;&gt;signal_plot_paths</title>
<path fill="none" stroke="black" d="M501,-524.4C501,-514.42 501,-501.49 501,-489.63"/>
<polygon fill="black" stroke="black" points="504.5,-489.79 501,-479.79 497.5,-489.79 504.5,-489.79"/>
</g>
<!-- process_signal -->
<g id="node18" class="node">
<title>process_signal</title>
<polygon fill="lightblue" stroke="black" points="741.75,-914 628.25,-914 628.25,-878 741.75,-878 741.75,-914"/>
<text text-anchor="middle" x="685" y="-898.5" font-family="Arial" font-size="10.00">_process_signal_plot()</text>
<text text-anchor="middle" x="685" y="-886.5" font-family="Arial" font-size="10.00">Process single signal</text>
</g>
<!-- process_signals&#45;&gt;process_signal -->
<g id="edge17" class="edge">
<title>process_signals&#45;&gt;process_signal</title>
<path fill="none" stroke="black" d="M534.1,-560.83C548.06,-569.87 563.11,-582.25 572,-597.5 626.99,-691.86 547.37,-748.23 605,-841 612.67,-853.35 624.34,-863.54 636.41,-871.6"/>
<polygon fill="black" stroke="black" points="634.48,-874.53 644.82,-876.82 638.17,-868.58 634.48,-874.53"/>
</g>
<!-- signal_plot_paths&#45;&gt;html_generator -->
<g id="edge23" class="edge">
<title>signal_plot_paths&#45;&gt;html_generator</title>
<path fill="none" stroke="black" d="M538.97,-433.84C567.3,-418.06 605.95,-396.53 634.98,-380.35"/>
<polygon fill="black" stroke="black" points="636.46,-383.54 643.49,-375.61 633.05,-377.42 636.46,-383.54"/>
</g>
<!-- process_signal&#45;&gt;get_data_cached -->
<g id="edge18" class="edge">
<title>process_signal&#45;&gt;get_data_cached</title>
<path fill="none" stroke="black" d="M683.55,-877.81C682.9,-870.14 682.12,-860.89 681.39,-852.24"/>
<polygon fill="black" stroke="black" points="684.9,-852.21 680.57,-842.54 677.92,-852.8 684.9,-852.21"/>
</g>
<!-- check_aliases -->
<g id="node20" class="node">
<title>check_aliases</title>
<polygon fill="lightblue" stroke="black" points="732.5,-758.5 623.5,-758.5 623.5,-722.5 732.5,-722.5 732.5,-758.5"/>
<text text-anchor="middle" x="678" y="-743" font-family="Arial" font-size="10.00">Check Signal Aliases</text>
<text text-anchor="middle" x="678" y="-731" font-family="Arial" font-size="10.00">Fallback mechanism</text>
</g>
<!-- get_data_cached&#45;&gt;check_aliases -->
<g id="edge19" class="edge">
<title>get_data_cached&#45;&gt;check_aliases</title>
<path fill="none" stroke="black" d="M678.78,-804.53C678.66,-794.51 678.5,-781.68 678.36,-770.21"/>
<polygon fill="black" stroke="black" points="681.86,-770.4 678.24,-760.45 674.86,-770.49 681.86,-770.4"/>
</g>
<!-- create_plots -->
<g id="node21" class="node">
<title>create_plots</title>
<polygon fill="lightblue" stroke="black" points="734.5,-643.5 619.5,-643.5 619.5,-607.5 734.5,-607.5 734.5,-643.5"/>
<text text-anchor="middle" x="677" y="-628" font-family="Arial" font-size="10.00">Create Plot Types</text>
<text text-anchor="middle" x="677" y="-616" font-family="Arial" font-size="10.00">Based on signal config</text>
</g>
<!-- check_aliases&#45;&gt;create_plots -->
<g id="edge20" class="edge">
<title>check_aliases&#45;&gt;create_plots</title>
<path fill="none" stroke="black" d="M677.85,-722.34C677.69,-704.5 677.44,-676.28 677.25,-655.07"/>
<polygon fill="black" stroke="black" points="680.76,-655.31 677.17,-645.34 673.76,-655.37 680.76,-655.31"/>
</g>
<!-- save_json -->
<g id="node22" class="node">
<title>save_json</title>
<polygon fill="lightblue" stroke="black" points="709.12,-560.5 606.88,-560.5 606.88,-524.5 709.12,-524.5 709.12,-560.5"/>
<text text-anchor="middle" x="658" y="-545" font-family="Arial" font-size="10.00">Save Plot as JSON</text>
<text text-anchor="middle" x="658" y="-533" font-family="Arial" font-size="10.00">in temp directory</text>
</g>
<!-- create_plots&#45;&gt;save_json -->
<g id="edge21" class="edge">
<title>create_plots&#45;&gt;save_json</title>
<path fill="none" stroke="black" d="M672.97,-607.32C670.57,-597.08 667.46,-583.83 664.7,-572.05"/>
<polygon fill="black" stroke="black" points="668.13,-571.34 662.43,-562.41 661.31,-572.94 668.13,-571.34"/>
</g>
<!-- save_json&#45;&gt;signal_plot_paths -->
<g id="edge22" class="edge">
<title>save_json&#45;&gt;signal_plot_paths</title>
<path fill="none" stroke="black" d="M625.85,-524.2C604.01,-512.44 574.71,-496.67 549.98,-483.36"/>
<polygon fill="black" stroke="black" points="551.85,-480.4 541.39,-478.74 548.54,-486.56 551.85,-480.4"/>
</g>
<!-- html_generator&#45;&gt;create_folder_structure -->
<g id="edge24" class="edge">
<title>html_generator&#45;&gt;create_folder_structure</title>
<path fill="none" stroke="black" d="M690.04,-338.31C696.88,-329.94 705.25,-319.7 712.84,-310.4"/>
<polygon fill="black" stroke="black" points="715.52,-312.66 719.13,-302.7 710.09,-308.23 715.52,-312.66"/>
</g>
<!-- load_categorize_plots -->
<g id="node25" class="node">
<title>load_categorize_plots</title>
<polygon fill="pink" stroke="black" points="652.38,-301.5 509.62,-301.5 509.62,-265.5 652.38,-265.5 652.38,-301.5"/>
<text text-anchor="middle" x="581" y="-286" font-family="Arial" font-size="10.00">_load_and_categorize_plots()</text>
<text text-anchor="middle" x="581" y="-274" font-family="Arial" font-size="10.00">Categorize by type</text>
</g>
<!-- html_generator&#45;&gt;load_categorize_plots -->
<g id="edge25" class="edge">
<title>html_generator&#45;&gt;load_categorize_plots</title>
<path fill="none" stroke="black" d="M653,-338.31C641.07,-329.4 626.3,-318.36 613.25,-308.6"/>
<polygon fill="black" stroke="black" points="615.43,-305.86 605.33,-302.68 611.24,-311.47 615.43,-305.86"/>
</g>
<!-- generate_html_files -->
<g id="node26" class="node">
<title>generate_html_files</title>
<polygon fill="pink" stroke="black" points="664,-228.5 510,-228.5 510,-192.5 664,-192.5 664,-228.5"/>
<text text-anchor="middle" x="587" y="-213" font-family="Arial" font-size="10.00">generate_and_save_html_files()</text>
<text text-anchor="middle" x="587" y="-201" font-family="Arial" font-size="10.00">Create HTML files</text>
</g>
<!-- load_categorize_plots&#45;&gt;generate_html_files -->
<g id="edge26" class="edge">
<title>load_categorize_plots&#45;&gt;generate_html_files</title>
<path fill="none" stroke="black" d="M582.45,-265.31C583.1,-257.64 583.88,-248.39 584.61,-239.74"/>
<polygon fill="black" stroke="black" points="588.08,-240.3 585.43,-230.04 581.1,-239.71 588.08,-240.3"/>
</g>
<!-- create_main_index -->
<g id="node27" class="node">
<title>create_main_index</title>
<polygon fill="pink" stroke="black" points="797.5,-155.5 664.5,-155.5 664.5,-119.5 797.5,-119.5 797.5,-155.5"/>
<text text-anchor="middle" x="731" y="-140" font-family="Arial" font-size="10.00">_create_main_html_index()</text>
<text text-anchor="middle" x="731" y="-128" font-family="Arial" font-size="10.00">Generate main index</text>
</g>
<!-- generate_html_files&#45;&gt;create_main_index -->
<g id="edge27" class="edge">
<title>generate_html_files&#45;&gt;create_main_index</title>
<path fill="none" stroke="black" d="M622.23,-192.13C641.32,-182.72 665.12,-170.98 685.59,-160.89"/>
<polygon fill="black" stroke="black" points="686.86,-164.17 694.28,-156.6 683.76,-157.89 686.86,-164.17"/>
</g>
<!-- master_index -->
<g id="node28" class="node">
<title>master_index</title>
<polygon fill="pink" stroke="black" points="646.88,-155.5 513.12,-155.5 513.12,-119.5 646.88,-119.5 646.88,-155.5"/>
<text text-anchor="middle" x="580" y="-140" font-family="Arial" font-size="10.00">create_master_index()</text>
<text text-anchor="middle" x="580" y="-128" font-family="Arial" font-size="10.00">Nested dropdown structure</text>
</g>
<!-- generate_html_files&#45;&gt;master_index -->
<g id="edge30" class="edge">
<title>generate_html_files&#45;&gt;master_index</title>
<path fill="none" stroke="black" d="M585.31,-192.31C584.55,-184.64 583.64,-175.39 582.78,-166.74"/>
<polygon fill="black" stroke="black" points="586.29,-166.64 581.83,-157.04 579.33,-167.33 586.29,-166.64"/>
</g>
<!-- generate_html_files&#45;&gt;temp_cleanup -->
<g id="edge32" class="edge">
<title>generate_html_files&#45;&gt;temp_cleanup</title>
<path fill="none" stroke="black" d="M543.85,-192.11C528.41,-183.53 512.69,-171.52 504,-155.5 494.68,-138.31 490.6,-125.74 504,-111.5 527.64,-86.36 781.67,-104.56 814,-92.5 830.61,-86.31 846.52,-74.76 858.97,-63.97"/>
<polygon fill="black" stroke="black" points="861.2,-66.67 866.26,-57.36 856.5,-61.49 861.2,-66.67"/>
</g>
<!-- category_html -->
<g id="node29" class="node">
<title>category_html</title>
<path fill="lightyellow" stroke="black" d="M805.38,-56C805.38,-58.21 770.69,-60 728,-60 685.31,-60 650.62,-58.21 650.62,-56 650.62,-56 650.62,-20 650.62,-20 650.62,-17.79 685.31,-16 728,-16 770.69,-16 805.38,-17.79 805.38,-20 805.38,-20 805.38,-56 805.38,-56"/>
<path fill="none" stroke="black" d="M805.38,-56C805.38,-53.79 770.69,-52 728,-52 685.31,-52 650.62,-53.79 650.62,-56"/>
<text text-anchor="middle" x="728" y="-40.5" font-family="Arial" font-size="10.00">Category HTML Files</text>
<text text-anchor="middle" x="728" y="-28.5" font-family="Arial" font-size="10.00">(histogram, mismatch, kpi, etc.)</text>
</g>
<!-- create_main_index&#45;&gt;category_html -->
<g id="edge28" class="edge">
<title>create_main_index&#45;&gt;category_html</title>
<path fill="none" stroke="black" d="M730.46,-119.07C730.06,-105.97 729.5,-87.65 729.01,-71.84"/>
<polygon fill="black" stroke="black" points="732.51,-71.76 728.7,-61.88 725.51,-71.98 732.51,-71.76"/>
</g>
<!-- main_html -->
<g id="node30" class="node">
<title>main_html</title>
<path fill="lightyellow" stroke="black" d="M633,-56C633,-58.21 611.93,-60 586,-60 560.07,-60 539,-58.21 539,-56 539,-56 539,-20 539,-20 539,-17.79 560.07,-16 586,-16 611.93,-16 633,-17.79 633,-20 633,-20 633,-56 633,-56"/>
<path fill="none" stroke="black" d="M633,-56C633,-53.79 611.93,-52 586,-52 560.07,-52 539,-53.79 539,-56"/>
<text text-anchor="middle" x="586" y="-40.5" font-family="Arial" font-size="10.00">Main HTML Index</text>
<text text-anchor="middle" x="586" y="-28.5" font-family="Arial" font-size="10.00">with navigation</text>
</g>
<!-- create_main_index&#45;&gt;main_html -->
<g id="edge29" class="edge">
<title>create_main_index&#45;&gt;main_html</title>
<path fill="none" stroke="black" d="M689.21,-119.05C673.79,-111.79 656.54,-102.68 642,-92.5 631.98,-85.49 622.02,-76.71 613.33,-68.3"/>
<polygon fill="black" stroke="black" points="616.05,-66.07 606.5,-61.49 611.11,-71.03 616.05,-66.07"/>
</g>
<!-- master_html -->
<g id="node31" class="node">
<title>master_html</title>
<path fill="lightyellow" stroke="black" d="M521.25,-56C521.25,-58.21 495.14,-60 463,-60 430.86,-60 404.75,-58.21 404.75,-56 404.75,-56 404.75,-20 404.75,-20 404.75,-17.79 430.86,-16 463,-16 495.14,-16 521.25,-17.79 521.25,-20 521.25,-20 521.25,-56 521.25,-56"/>
<path fill="none" stroke="black" d="M521.25,-56C521.25,-53.79 495.14,-52 463,-52 430.86,-52 404.75,-53.79 404.75,-56"/>
<text text-anchor="middle" x="463" y="-40.5" font-family="Arial" font-size="10.00">Master Index HTML</text>
<text text-anchor="middle" x="463" y="-28.5" font-family="Arial" font-size="10.00">with nested dropdowns</text>
</g>
<!-- master_index&#45;&gt;master_html -->
<g id="edge31" class="edge">
<title>master_index&#45;&gt;master_html</title>
<path fill="none" stroke="black" d="M559.08,-119.07C541.98,-104.82 517.45,-84.38 497.46,-67.72"/>
<polygon fill="black" stroke="black" points="499.72,-65.04 489.8,-61.33 495.24,-70.42 499.72,-65.04"/>
</g>
<!-- legend_input -->
<g id="node33" class="node">
<title>legend_input</title>
<polygon fill="lightyellow" stroke="black" points="1054.5,-1013.5 963.5,-1013.5 963.5,-977.5 1054.5,-977.5 1054.5,-1013.5"/>
<text text-anchor="middle" x="1009" y="-992" font-family="Arial" font-size="10.00">Input Parameters</text>
</g>
<!-- legend_process -->
<g id="node34" class="node">
<title>legend_process</title>
<polygon fill="palegreen" stroke="black" points="1165.62,-1013.5 1072.38,-1013.5 1072.38,-977.5 1165.62,-977.5 1165.62,-1013.5"/>
<text text-anchor="middle" x="1119" y="-992" font-family="Arial" font-size="10.00">Processing Steps</text>
</g>
<!-- legend_data -->
<g id="node35" class="node">
<title>legend_data</title>
<path fill="lightcyan" stroke="black" d="M1257.88,-1010.23C1257.88,-1012.03 1241.35,-1013.5 1221,-1013.5 1200.65,-1013.5 1184.12,-1012.03 1184.12,-1010.23 1184.12,-1010.23 1184.12,-980.77 1184.12,-980.77 1184.12,-978.97 1200.65,-977.5 1221,-977.5 1241.35,-977.5 1257.88,-978.97 1257.88,-980.77 1257.88,-980.77 1257.88,-1010.23 1257.88,-1010.23"/>
<path fill="none" stroke="black" d="M1257.88,-1010.23C1257.88,-1008.42 1241.35,-1006.95 1221,-1006.95 1200.65,-1006.95 1184.12,-1008.42 1184.12,-1010.23"/>
<text text-anchor="middle" x="1221" y="-992" font-family="Arial" font-size="10.00">Data Storage</text>
</g>
<!-- legend_output -->
<g id="node36" class="node">
<title>legend_output</title>
<polygon fill="lightyellow" stroke="black" points="1345.62,-1013.5 1276.38,-1013.5 1276.38,-977.5 1345.62,-977.5 1345.62,-1013.5"/>
<text text-anchor="middle" x="1311" y="-992" font-family="Arial" font-size="10.00">Output Files</text>
</g>
<!-- legend_conditional -->
<g id="node37" class="node">
<title>legend_conditional</title>
<polygon fill="none" stroke="red" stroke-dasharray="1,5" points="1452.38,-1013.5 1363.62,-1013.5 1363.62,-977.5 1452.38,-977.5 1452.38,-1013.5"/>
<text text-anchor="middle" x="1408" y="-992" font-family="Arial" font-size="10.00">Conditional Flow</text>
</g>
<!-- legend_dependency -->
<g id="node38" class="node">
<title>legend_dependency</title>
<polygon fill="none" stroke="blue" stroke-dasharray="5,2" points="1573.12,-1013.5 1470.88,-1013.5 1470.88,-977.5 1573.12,-977.5 1573.12,-1013.5"/>
<text text-anchor="middle" x="1522" y="-992" font-family="Arial" font-size="10.00">Data Dependencies</text>
</g>
</g>
</svg>
