<?xml version="1.0" encoding="UTF-8" standalone="no"?>
<!DOCTYPE svg PUBLIC "-//W3C//DTD SVG 1.1//EN"
 "http://www.w3.org/Graphics/SVG/1.1/DTD/svg11.dtd">
<!-- Generated by graphviz version 12.1.2 (20240928.0832)
 -->
<!-- Title: KPI_State_Transitions Pages: 1 -->
<svg width="3890pt" height="184pt"
 viewBox="0.00 0.00 3890.49 183.86" xmlns="http://www.w3.org/2000/svg" xmlns:xlink="http://www.w3.org/1999/xlink">
<g id="graph0" class="graph" transform="scale(1 1) rotate(0) translate(4 179.86)">
<title>KPI_State_Transitions</title>
<polygon fill="white" stroke="none" points="-4,4 -4,-179.86 3886.49,-179.86 3886.49,4 -4,4"/>
<!-- INIT -->
<g id="node1" class="node">
<title>INIT</title>
<ellipse fill="lightblue" stroke="black" cx="79.2" cy="-27.93" rx="79.2" ry="27.93"/>
<text text-anchor="middle" x="79.2" y="-30.38" font-family="Arial" font-size="14.00">INIT</text>
<text text-anchor="middle" x="79.2" y="-14.63" font-family="Arial" font-size="14.00">Models Created</text>
</g>
<!-- SCAN_EXTRACTED -->
<g id="node2" class="node">
<title>SCAN_EXTRACTED</title>
<ellipse fill="lightcyan" stroke="black" cx="420.58" cy="-27.93" rx="100.94" ry="27.93"/>
<text text-anchor="middle" x="420.58" y="-30.38" font-family="Arial" font-size="14.00">SCAN_EXTRACTED</text>
<text text-anchor="middle" x="420.58" y="-14.63" font-family="Arial" font-size="14.00">Scan Index Found</text>
</g>
<!-- INIT&#45;&gt;SCAN_EXTRACTED -->
<g id="edge1" class="edge">
<title>INIT&#45;&gt;SCAN_EXTRACTED</title>
<path fill="none" stroke="black" d="M158.48,-27.93C202.89,-27.93 259.19,-27.93 308.14,-27.93"/>
<polygon fill="black" stroke="black" points="307.92,-31.43 317.92,-27.93 307.92,-24.43 307.92,-31.43"/>
<text text-anchor="middle" x="239.02" y="-30.38" font-family="Arial" font-size="14.00">extract_scan_index()</text>
</g>
<!-- MODELS_INITIALIZED -->
<g id="node3" class="node">
<title>MODELS_INITIALIZED</title>
<ellipse fill="lightgreen" stroke="black" cx="794.85" cy="-27.93" rx="112.08" ry="27.93"/>
<text text-anchor="middle" x="794.85" y="-30.38" font-family="Arial" font-size="14.00">MODELS_INITIALIZED</text>
<text text-anchor="middle" x="794.85" y="-14.63" font-family="Arial" font-size="14.00">Data Containers Ready</text>
</g>
<!-- SCAN_EXTRACTED&#45;&gt;MODELS_INITIALIZED -->
<g id="edge2" class="edge">
<title>SCAN_EXTRACTED&#45;&gt;MODELS_INITIALIZED</title>
<path fill="none" stroke="black" d="M521.83,-27.93C567.79,-27.93 622.69,-27.93 671.09,-27.93"/>
<polygon fill="black" stroke="black" points="671.09,-31.43 681.09,-27.93 671.09,-24.43 671.09,-31.43"/>
<text text-anchor="middle" x="602.15" y="-30.38" font-family="Arial" font-size="14.00">initialize(scan_index)</text>
</g>
<!-- STREAM_PROCESSING -->
<g id="node4" class="node">
<title>STREAM_PROCESSING</title>
<ellipse fill="lightyellow" stroke="black" cx="1192.8" cy="-27.93" rx="121.62" ry="27.93"/>
<text text-anchor="middle" x="1192.8" y="-30.38" font-family="Arial" font-size="14.00">STREAM_PROCESSING</text>
<text text-anchor="middle" x="1192.8" y="-14.63" font-family="Arial" font-size="14.00">[{idx}_{stream}]</text>
</g>
<!-- MODELS_INITIALIZED&#45;&gt;STREAM_PROCESSING -->
<g id="edge3" class="edge">
<title>MODELS_INITIALIZED&#45;&gt;STREAM_PROCESSING</title>
<path fill="none" stroke="black" d="M907.19,-27.93C954.52,-27.93 1010.06,-27.93 1059.46,-27.93"/>
<polygon fill="black" stroke="black" points="1059.37,-31.43 1069.37,-27.93 1059.37,-24.43 1059.37,-31.43"/>
<text text-anchor="middle" x="989.05" y="-30.38" font-family="Arial" font-size="14.00">for stream in streams</text>
</g>
<!-- PARENT_SET -->
<g id="node5" class="node">
<title>PARENT_SET</title>
<ellipse fill="wheat" stroke="black" cx="1626.74" cy="-73.93" rx="112.08" ry="27.93"/>
<text text-anchor="middle" x="1626.74" y="-76.38" font-family="Arial" font-size="14.00">PARENT_SET</text>
<text text-anchor="middle" x="1626.74" y="-60.63" font-family="Arial" font-size="14.00">Counter: {parent}_None</text>
</g>
<!-- STREAM_PROCESSING&#45;&gt;PARENT_SET -->
<g id="edge4" class="edge">
<title>STREAM_PROCESSING&#45;&gt;PARENT_SET</title>
<path fill="none" stroke="black" d="M1303.91,-39.66C1367.46,-46.42 1447.25,-54.92 1511.48,-61.76"/>
<polygon fill="black" stroke="black" points="1511.06,-65.24 1521.37,-62.82 1511.8,-58.28 1511.06,-65.24"/>
<text text-anchor="middle" x="1414.54" y="-61.5" font-family="Arial" font-size="14.00">init_parent([{idx}_{stream}])</text>
</g>
<!-- INPUT_PARSING -->
<g id="node6" class="node">
<title>INPUT_PARSING</title>
<ellipse fill="lightpink" stroke="black" cx="1988.92" cy="-147.93" rx="88.21" ry="27.93"/>
<text text-anchor="middle" x="1988.92" y="-150.38" font-family="Arial" font-size="14.00">INPUT_PARSING</text>
<text text-anchor="middle" x="1988.92" y="-134.63" font-family="Arial" font-size="14.00">HDF5 → Parser</text>
</g>
<!-- PARENT_SET&#45;&gt;INPUT_PARSING -->
<g id="edge5" class="edge">
<title>PARENT_SET&#45;&gt;INPUT_PARSING</title>
<path fill="none" stroke="black" d="M1714.02,-91.66C1771.28,-103.42 1846.1,-118.79 1903.07,-130.5"/>
<polygon fill="black" stroke="black" points="1902.24,-133.9 1912.73,-132.48 1903.64,-127.04 1902.24,-133.9"/>
<text text-anchor="middle" x="1814.2" y="-126.44" font-family="Arial" font-size="14.00">if input_file_exists</text>
</g>
<!-- OUTPUT_PARSING -->
<g id="node7" class="node">
<title>OUTPUT_PARSING</title>
<ellipse fill="lightpink" stroke="black" cx="1988.92" cy="-73.93" rx="99.35" ry="27.93"/>
<text text-anchor="middle" x="1988.92" y="-76.38" font-family="Arial" font-size="14.00">OUTPUT_PARSING</text>
<text text-anchor="middle" x="1988.92" y="-60.63" font-family="Arial" font-size="14.00">HDF5 → Parser</text>
</g>
<!-- PARENT_SET&#45;&gt;OUTPUT_PARSING -->
<g id="edge6" class="edge">
<title>PARENT_SET&#45;&gt;OUTPUT_PARSING</title>
<path fill="none" stroke="black" d="M1739.24,-73.93C1783.33,-73.93 1833.88,-73.93 1877.83,-73.93"/>
<polygon fill="black" stroke="black" points="1877.64,-77.43 1887.64,-73.93 1877.64,-70.43 1877.64,-77.43"/>
<text text-anchor="middle" x="1814.2" y="-76.38" font-family="Arial" font-size="14.00">if output_file_exists</text>
</g>
<!-- DATA_STORED -->
<g id="node8" class="node">
<title>DATA_STORED</title>
<ellipse fill="lightcoral" stroke="black" cx="2380.36" cy="-67.93" rx="121.09" ry="27.93"/>
<text text-anchor="middle" x="2380.36" y="-70.38" font-family="Arial" font-size="14.00">DATA_STORED</text>
<text text-anchor="middle" x="2380.36" y="-54.63" font-family="Arial" font-size="14.00">Signal Mappings Updated</text>
</g>
<!-- INPUT_PARSING&#45;&gt;DATA_STORED -->
<g id="edge7" class="edge">
<title>INPUT_PARSING&#45;&gt;DATA_STORED</title>
<path fill="none" stroke="black" d="M2069.72,-136.43C2081.96,-134.67 2094.45,-132.87 2106.27,-131.18 2166.26,-122.58 2182.64,-127.29 2241.27,-111.93 2249.57,-109.76 2251.16,-107.75 2259.27,-104.93 2270.39,-101.06 2282.16,-97.18 2293.81,-93.46"/>
<polygon fill="black" stroke="black" points="2294.53,-96.9 2303.01,-90.55 2292.42,-90.23 2294.53,-96.9"/>
<text text-anchor="middle" x="2173.77" y="-133.63" font-family="Arial" font-size="14.00">KPIHDFParser.parse()</text>
</g>
<!-- ERROR -->
<g id="node13" class="node">
<title>ERROR</title>
<polygon fill="red" stroke="black" points="2481.58,-131.41 2481.58,-156.45 2422.29,-174.16 2338.43,-174.16 2279.14,-156.45 2279.14,-131.41 2338.43,-113.7 2422.29,-113.7 2481.58,-131.41"/>
<text text-anchor="middle" x="2380.36" y="-146.38" font-family="Arial" font-size="14.00">ERROR</text>
<text text-anchor="middle" x="2380.36" y="-130.63" font-family="Arial" font-size="14.00">Exception Handling</text>
</g>
<!-- INPUT_PARSING&#45;&gt;ERROR -->
<g id="edge14" class="edge">
<title>INPUT_PARSING&#45;&gt;ERROR</title>
<path fill="none" stroke="black" stroke-dasharray="1,5" d="M2077.27,-150.43C2087.05,-150.63 2096.87,-150.81 2106.27,-150.93 2166.26,-151.7 2181.29,-152.45 2241.27,-150.93 2249.79,-150.71 2258.6,-150.42 2267.46,-150.08"/>
<polygon fill="black" stroke="black" points="2267.33,-153.59 2277.18,-149.69 2267.05,-146.6 2267.33,-153.59"/>
<text text-anchor="middle" x="2173.77" y="-154.26" font-family="Arial" font-size="14.00">parse_error</text>
</g>
<!-- OUTPUT_PARSING&#45;&gt;DATA_STORED -->
<g id="edge8" class="edge">
<title>OUTPUT_PARSING&#45;&gt;DATA_STORED</title>
<path fill="none" stroke="black" d="M2076.18,-60.11C2086.3,-58.91 2096.5,-57.88 2106.27,-57.18 2154.91,-53.7 2208.51,-54.74 2255.25,-57.24"/>
<polygon fill="black" stroke="black" points="2254.97,-60.73 2265.15,-57.8 2255.37,-53.74 2254.97,-60.73"/>
<text text-anchor="middle" x="2173.77" y="-59.63" font-family="Arial" font-size="14.00">KPIHDFParser.parse()</text>
</g>
<!-- OUTPUT_PARSING&#45;&gt;ERROR -->
<g id="edge15" class="edge">
<title>OUTPUT_PARSING&#45;&gt;ERROR</title>
<path fill="none" stroke="black" stroke-dasharray="1,5" d="M2088.67,-74.41C2135.61,-76.72 2192.09,-82.55 2241.27,-96.18 2249.84,-98.56 2251.02,-101.6 2259.27,-104.93 2271.34,-109.8 2284.27,-114.5 2297.02,-118.86"/>
<polygon fill="black" stroke="black" points="2295.63,-122.09 2306.22,-121.96 2297.86,-115.45 2295.63,-122.09"/>
<text text-anchor="middle" x="2173.77" y="-98.63" font-family="Arial" font-size="14.00">parse_error</text>
</g>
<!-- STREAM_COMPLETE -->
<g id="node9" class="node">
<title>STREAM_COMPLETE</title>
<ellipse fill="orange" stroke="black" cx="2781.44" cy="-67.93" rx="110.49" ry="27.93"/>
<text text-anchor="middle" x="2781.44" y="-70.38" font-family="Arial" font-size="14.00">STREAM_COMPLETE</text>
<text text-anchor="middle" x="2781.44" y="-54.63" font-family="Arial" font-size="14.00">Next Stream Ready</text>
</g>
<!-- DATA_STORED&#45;&gt;STREAM_COMPLETE -->
<g id="edge9" class="edge">
<title>DATA_STORED&#45;&gt;STREAM_COMPLETE</title>
<path fill="none" stroke="black" d="M2501.91,-67.93C2551.72,-67.93 2609.37,-67.93 2659.25,-67.93"/>
<polygon fill="black" stroke="black" points="2659.24,-71.43 2669.24,-67.93 2659.24,-64.43 2659.24,-71.43"/>
<text text-anchor="middle" x="2586.2" y="-70.38" font-family="Arial" font-size="14.00">stream_processed</text>
</g>
<!-- STREAM_COMPLETE&#45;&gt;STREAM_PROCESSING -->
<g id="edge10" class="edge">
<title>STREAM_COMPLETE&#45;&gt;STREAM_PROCESSING</title>
<path fill="none" stroke="black" stroke-dasharray="5,2" d="M2697.6,-49.44C2617.21,-33.13 2491.55,-11.93 2381.36,-11.93 1625.74,-11.93 1625.74,-11.93 1625.74,-11.93 1523.76,-11.93 1408.33,-16.44 1322.47,-20.67"/>
<polygon fill="black" stroke="black" points="1322.41,-17.17 1312.6,-21.16 1322.76,-24.16 1322.41,-17.17"/>
<text text-anchor="middle" x="1988.92" y="-14.38" font-family="Arial" font-size="14.00">more_streams</text>
</g>
<!-- ALL_STREAMS_DONE -->
<g id="node10" class="node">
<title>ALL_STREAMS_DONE</title>
<ellipse fill="red" stroke="black" cx="3148.84" cy="-67.93" rx="113.67" ry="27.93"/>
<text text-anchor="middle" x="3148.84" y="-70.38" font-family="Arial" font-size="14.00">ALL_STREAMS_DONE</text>
<text text-anchor="middle" x="3148.84" y="-54.63" font-family="Arial" font-size="14.00">KPI Factory Ready</text>
</g>
<!-- STREAM_COMPLETE&#45;&gt;ALL_STREAMS_DONE -->
<g id="edge11" class="edge">
<title>STREAM_COMPLETE&#45;&gt;ALL_STREAMS_DONE</title>
<path fill="none" stroke="black" d="M2892.07,-67.93C2933.46,-67.93 2980.85,-67.93 3023.49,-67.93"/>
<polygon fill="black" stroke="black" points="3023.29,-71.43 3033.29,-67.93 3023.29,-64.43 3023.29,-71.43"/>
<text text-anchor="middle" x="2963.55" y="-70.38" font-family="Arial" font-size="14.00">all_streams_done</text>
</g>
<!-- KPI_GENERATED -->
<g id="node11" class="node">
<title>KPI_GENERATED</title>
<ellipse fill="purple" stroke="black" cx="3498.72" cy="-67.93" rx="105.71" ry="27.93"/>
<text text-anchor="middle" x="3498.72" y="-70.38" font-family="Arial" font-size="14.00">KPI_GENERATED</text>
<text text-anchor="middle" x="3498.72" y="-54.63" font-family="Arial" font-size="14.00">HTML Report Created</text>
</g>
<!-- ALL_STREAMS_DONE&#45;&gt;KPI_GENERATED -->
<g id="edge12" class="edge">
<title>ALL_STREAMS_DONE&#45;&gt;KPI_GENERATED</title>
<path fill="none" stroke="black" d="M3262.79,-67.93C3300.8,-67.93 3343.26,-67.93 3381.51,-67.93"/>
<polygon fill="black" stroke="black" points="3381.2,-71.43 3391.2,-67.93 3381.2,-64.43 3381.2,-71.43"/>
<text text-anchor="middle" x="3327.76" y="-70.38" font-family="Arial" font-size="14.00">KpiDataModel()</text>
</g>
<!-- COMPLETE -->
<g id="node12" class="node">
<title>COMPLETE</title>
<ellipse fill="gray" stroke="black" cx="3797.46" cy="-67.93" rx="85.03" ry="27.93"/>
<text text-anchor="middle" x="3797.46" y="-70.38" font-family="Arial" font-size="14.00">COMPLETE</text>
<text text-anchor="middle" x="3797.46" y="-54.63" font-family="Arial" font-size="14.00">Results Returned</text>
</g>
<!-- KPI_GENERATED&#45;&gt;COMPLETE -->
<g id="edge13" class="edge">
<title>KPI_GENERATED&#45;&gt;COMPLETE</title>
<path fill="none" stroke="black" d="M3604.76,-67.93C3636.09,-67.93 3670.25,-67.93 3700.94,-67.93"/>
<polygon fill="black" stroke="black" points="3700.56,-71.43 3710.56,-67.93 3700.56,-64.43 3700.56,-71.43"/>
<text text-anchor="middle" x="3658.43" y="-70.38" font-family="Arial" font-size="14.00">close_files()</text>
</g>
<!-- ERROR&#45;&gt;STREAM_COMPLETE -->
<g id="edge16" class="edge">
<title>ERROR&#45;&gt;STREAM_COMPLETE</title>
<path fill="none" stroke="black" stroke-dasharray="1,5" d="M2468.94,-127.25C2531.51,-115.34 2615.81,-99.28 2680.93,-86.88"/>
<polygon fill="black" stroke="black" points="2681.37,-90.36 2690.54,-85.05 2680.06,-83.48 2681.37,-90.36"/>
<text text-anchor="middle" x="2586.2" y="-119.63" font-family="Arial" font-size="14.00">continue_next_stream</text>
</g>
</g>
</svg>
